<?xml version="1.0" standalone="no"?>
<!DOCTYPE svg PUBLIC "-//W3C//DTD SVG 20010904//EN"
 "http://www.w3.org/TR/2001/REC-SVG-20010904/DTD/svg10.dtd">
<svg version="1.0" xmlns="http://www.w3.org/2000/svg"
 width="233.000000pt" height="246.000000pt" viewBox="0 0 233.000000 246.000000"
 preserveAspectRatio="xMidYMid meet">
<metadata>
Created by potrace 1.16, written by Peter Selinger 2001-2019
</metadata>
<g transform="translate(0.000000,246.000000) scale(0.100000,-0.100000)"
fill="#fcaa22" stroke="none">
<path d="M93 2334 c-6 -16 23 -432 34 -488 4 -19 23 -41 57 -67 113 -85 266
-197 344 -254 46 -33 87 -66 92 -75 5 -9 12 -49 16 -89 6 -70 6 -74 -12 -68
-18 6 -18 6 0 -6 23 -14 48 -39 128 -130 44 -49 54 -65 37 -58 -142 55 -448
197 -460 213 -11 14 -18 17 -23 9 -4 -6 -13 -8 -19 -4 -7 4 -5 -1 3 -12 14
-16 13 -17 -7 -11 -13 4 -24 2 -29 -5 -5 -8 -3 -9 5 -5 7 5 20 1 31 -9 21 -19
39 -3 20 20 -6 7 -7 16 -2 18 4 3 13 -2 19 -12 9 -14 6 -24 -13 -47 -13 -16
-22 -22 -19 -14 3 8 -4 21 -15 28 -17 11 -20 10 -20 -7 0 -31 11 -51 24 -44 6
4 4 -1 -4 -11 -13 -17 -15 -15 -27 30 l-13 49 34 31 33 32 -29 43 c-21 30 -28
36 -23 19 5 -14 14 -30 22 -35 12 -9 9 -15 -15 -37 l-29 -26 -12 51 c-10 44
-9 52 4 59 18 11 20 34 3 44 -6 4 -8 3 -4 -4 6 -10 -11 -29 -19 -21 -2 2 -6
26 -10 53 -7 46 -6 49 11 42 14 -5 16 -4 8 4 -6 6 -17 8 -26 5 -16 -6 -8 -58
44 -273 l23 -94 50 -24 c27 -13 122 -53 210 -89 88 -36 165 -71 172 -78 7 -7
21 -79 33 -162 11 -82 28 -195 36 -250 8 -55 17 -118 20 -140 6 -36 25 -59
187 -222 100 -101 185 -183 190 -183 15 0 361 360 369 384 4 11 25 142 47 289
24 169 44 274 52 282 8 8 66 35 129 60 63 26 147 63 185 83 39 19 81 40 94 46
22 10 29 29 62 171 21 88 38 171 38 185 0 24 0 24 -11 5 -14 -25 -92 -147
-126 -198 -14 -20 -22 -40 -18 -44 3 -3 6 -1 6 6 0 18 33 -3 36 -23 1 -9 -2
-13 -8 -10 -6 4 -8 1 -6 -7 3 -8 10 -13 16 -12 6 2 9 -3 6 -11 -3 -8 -1 -17 5
-21 6 -3 11 -1 11 6 0 7 2 10 5 7 3 -3 3 -13 -1 -22 -5 -13 -14 -6 -42 34 -41
59 -22 61 -220 -26 -79 -35 -146 -64 -148 -64 -4 0 -113 -49 -129 -58 -15 -9
103 128 144 167 20 19 30 31 22 26 -11 -6 -12 2 -6 46 14 114 20 124 103 189
42 33 113 84 157 114 44 31 118 86 165 123 l85 68 12 90 c6 50 11 119 11 155
-1 54 -2 46 -12 -47 -9 -96 -15 -115 -36 -140 -21 -24 -22 -25 -2 -9 l22 19 0
-31 c0 -18 -3 -32 -6 -32 -3 0 -29 21 -59 46 -29 25 -55 47 -58 48 -2 0 -117
-95 -255 -212 -213 -181 -252 -218 -257 -245 -3 -18 -10 -72 -15 -121 -5 -49
-14 -94 -20 -100 -8 -8 -9 -6 -4 7 5 13 2 16 -10 11 -11 -4 -15 -13 -11 -23 4
-10 -1 -8 -14 6 -12 12 -21 28 -21 35 1 9 5 8 13 -4 12 -15 14 -15 36 1 22 17
22 17 -15 16 -32 0 -39 -4 -45 -25 l-7 -25 -1 25 c-1 15 7 30 19 38 27 16 26
36 -1 29 -18 -5 -20 -2 -16 19 2 14 1 22 -3 17 -5 -4 -10 -21 -13 -38 -3 -20
-4 -13 -5 20 -2 72 4 87 54 120 46 31 55 45 29 45 -8 0 -15 -4 -15 -10 0 -5
-13 -16 -30 -25 l-30 -16 0 38 c0 37 14 52 400 438 315 315 398 393 396 373
-1 -15 -9 -35 -17 -44 -9 -11 -9 -15 -1 -10 9 5 12 -9 13 -61 l2 -68 9 94 c11
115 7 130 -24 104 -13 -11 -195 -192 -405 -404 l-381 -384 -12 -170 c-6 -93
-17 -262 -25 -375 -8 -113 -17 -252 -21 -310 l-7 -105 -96 -100 c-53 -55 -82
-88 -65 -72 17 15 34 24 39 20 4 -5 5 -3 2 3 -3 6 24 41 61 77 l68 67 43 -44
43 -43 -95 -99 c-88 -91 -96 -97 -113 -84 -18 14 -18 14 -5 -3 13 -16 10 -22
-25 -58 l-38 -39 -138 137 c-76 76 -138 140 -138 143 0 3 20 26 45 52 42 45
44 50 40 95 -5 46 -22 306 -46 678 -6 99 -14 191 -19 205 -7 25 -7 -9 4 -175
3 -44 2 -66 -2 -50 -5 20 -10 26 -15 18 -5 -7 -5 -13 0 -13 4 0 0 -5 -9 -11
-13 -7 -25 -5 -45 8 -15 10 -24 12 -20 6 5 -7 4 -13 -2 -13 -7 0 -9 -18 -6
-47 4 -47 4 -47 -4 -8 -17 81 -21 135 -10 135 8 0 8 5 -1 15 -6 8 -12 36 -13
62 -2 35 -7 52 -22 62 -11 8 -125 104 -252 213 -128 109 -238 198 -245 198 -6
0 -24 -12 -39 -26 l-28 -27 -29 24 c-21 17 -32 36 -36 64 -11 76 -28 374 -21
385 3 5 4 10 0 10 -3 0 -8 -7 -12 -16z"/>
</g>
</svg>
