<?xml version="1.0" standalone="no"?>
<!DOCTYPE svg PUBLIC "-//W3C//DTD SVG 20010904//EN"
 "http://www.w3.org/TR/2001/REC-SVG-20010904/DTD/svg10.dtd">
<svg version="1.0" xmlns="http://www.w3.org/2000/svg"
 width="1024.000000pt" height="682.000000pt" viewBox="0 0 1024.000000 682.000000"
 preserveAspectRatio="xMidYMid meet">
<metadata>
Created by potrace 1.16, written by Peter Selinger 2001-2019
</metadata>
<g transform="translate(0.000000,682.000000) scale(0.100000,-0.100000)"
fill="#fcaa22" stroke="none">
<path d="M2920 6808 c0 -7 7 -22 15 -32 12 -16 12 -22 2 -28 -9 -6 -9 -8 1 -8
6 0 12 -10 12 -23 0 -13 6 -29 13 -36 7 -9 7 -11 1 -8 -7 4 -15 0 -18 -9 -4
-9 -13 -14 -21 -10 -9 3 -15 0 -15 -9 0 -20 -16 -19 -24 1 -9 23 -8 24 24 24
50 0 29 57 -33 90 -44 24 -54 25 -37 5 9 -11 8 -18 -9 -36 -14 -15 -21 -18
-21 -9 0 10 -3 11 -10 4 -6 -6 -8 -18 -4 -28 5 -13 9 -14 20 -5 9 8 14 8 14 1
0 -6 -4 -14 -10 -17 -16 -10 -12 -48 9 -91 l20 -39 7 45 8 45 9 -35 9 -34 19
24 c10 14 19 31 19 38 0 17 6 15 35 -10 17 -15 22 -25 15 -33 -7 -9 -6 -16 5
-25 12 -10 15 -10 15 3 0 16 24 30 34 20 3 -4 1 -12 -5 -20 -9 -10 -6 -13 14
-13 14 0 29 -4 32 -10 10 -16 45 -12 52 6 4 10 -1 22 -10 29 -10 7 -17 16 -17
20 0 4 6 3 13 -1 19 -15 52 -10 48 6 -2 8 -3 27 -3 43 1 28 -7 34 -24 17 -6
-6 -10 -3 -11 10 -2 22 5 24 27 10 11 -7 19 -4 31 12 10 12 21 18 28 13 9 -5
7 -11 -8 -22 -24 -16 -28 -33 -8 -33 9 0 12 -10 9 -30 -2 -16 -7 -30 -11 -30
-5 0 -6 -53 -2 -125 2 -19 3 -19 21 4 13 15 31 24 54 24 27 1 32 5 28 19 -2
10 -8 18 -12 18 -5 0 -9 12 -10 28 -3 74 -5 88 -17 100 -7 7 -13 23 -13 35 0
13 3 17 8 11 4 -6 15 -13 25 -17 9 -4 20 -15 24 -24 4 -10 13 -24 20 -31 7 -7
13 -20 13 -28 0 -8 7 -14 15 -14 8 0 15 -4 15 -10 0 -5 -4 -10 -10 -10 -5 0
-10 -9 -10 -19 0 -11 5 -23 10 -26 6 -3 10 3 10 14 0 11 5 23 12 27 8 5 9 0 6
-14 -4 -12 -2 -22 2 -22 5 0 11 -19 15 -42 7 -41 8 -41 21 -17 7 13 13 18 14
11 0 -22 -20 -53 -31 -47 -5 4 -9 2 -9 -4 0 -5 -3 -16 -6 -25 -4 -11 -1 -16
10 -16 17 0 21 -12 9 -24 -7 -7 -10 -19 -19 -85 -5 -33 -3 -42 6 -36 6 4 10
16 7 26 -3 10 -1 22 4 25 5 3 9 -2 9 -10 0 -19 16 -21 24 -3 4 8 5 7 5 -3 -2
-31 1 -40 17 -40 11 0 15 -8 12 -27 -2 -20 2 -29 15 -31 17 -3 22 11 18 52 -1
16 1 17 14 6 13 -10 15 -9 15 11 0 16 3 20 11 12 11 -11 -10 -63 -38 -91 -12
-12 -16 -12 -32 2 -18 16 -39 8 -23 -8 4 -4 7 -22 7 -39 0 -45 20 -44 52 2 40
57 40 57 42 -36 4 -126 0 -138 -39 -139 -25 -1 -30 2 -25 15 4 9 9 22 12 29 4
9 -1 13 -13 11 -10 -2 -24 0 -31 4 -18 11 -43 -3 -43 -24 0 -10 -4 -19 -10
-19 -5 0 -10 -5 -10 -11 0 -5 4 -8 9 -5 5 4 12 0 15 -6 3 -10 9 -8 19 5 20 24
24 22 29 -13 3 -19 0 -31 -10 -35 -20 -7 -22 -7 -22 9 0 24 -32 28 -52 6 -20
-22 -21 -51 -2 -57 7 -2 10 6 7 22 -4 18 -1 25 11 25 15 0 21 -19 18 -60 0 -8
5 -18 11 -22 8 -5 6 -8 -5 -8 -10 0 -18 -5 -18 -11 0 -6 9 -9 20 -6 13 3 20 0
20 -10 0 -8 -6 -13 -13 -10 -7 3 -19 -4 -25 -14 -10 -15 -9 -19 2 -19 8 0 18
5 21 10 10 16 25 11 18 -6 -9 -24 18 -36 39 -17 10 9 18 20 18 25 0 11 25 38
35 38 4 0 0 -11 -9 -25 -12 -18 -13 -23 -2 -19 16 6 30 -46 16 -60 -5 -5 -6
-31 -3 -59 5 -40 3 -49 -8 -45 -8 3 -24 1 -36 -3 -17 -6 -23 -5 -23 5 0 8 5
16 12 18 7 3 9 12 5 22 -6 14 -10 16 -21 7 -9 -8 -17 -8 -20 -2 -3 5 0 11 6
14 7 2 10 8 6 12 -13 14 -57 -29 -58 -57 0 -16 -4 -28 -10 -28 -5 0 -10 -9
-10 -21 0 -11 5 -17 10 -14 6 3 10 -3 10 -14 0 -23 -25 -29 -33 -8 -4 9 -6 9
-6 -1 -1 -8 8 -16 19 -19 21 -6 28 -23 8 -23 -6 0 -8 -3 -5 -7 4 -3 0 -15 -10
-25 -9 -11 -11 -18 -5 -18 14 0 16 -46 3 -54 -16 -10 -20 -46 -6 -46 14 0 30
56 27 93 0 9 3 17 9 17 5 0 9 -8 9 -17 0 -15 2 -16 10 -3 8 12 10 11 10 -7 0
-13 6 -23 14 -23 21 0 30 -19 17 -34 -9 -10 -8 -15 3 -19 19 -7 44 17 62 58 8
17 13 23 14 13 0 -14 -32 -82 -46 -97 -2 -2 -15 4 -28 13 -14 8 -27 12 -30 7
-3 -5 1 -11 9 -15 10 -4 13 -14 9 -34 -9 -46 11 -46 47 -1 32 41 33 42 40 18
3 -14 5 -38 4 -54 -1 -17 -3 -55 -3 -86 l-2 -56 -30 5 c-26 4 -29 7 -23 30 5
22 3 24 -14 20 -18 -5 -21 -1 -19 32 2 28 -2 36 -11 33 -7 -3 -13 0 -13 6 0 6
-4 11 -10 11 -5 0 -10 -11 -10 -25 0 -18 5 -25 20 -25 25 0 26 -16 1 -23 -18
-4 -57 -67 -41 -67 5 0 11 6 13 13 3 6 6 2 6 -11 1 -14 -3 -21 -10 -17 -16 11
-39 -27 -36 -59 1 -16 -3 -31 -9 -33 -8 -3 -11 10 -10 37 1 22 -1 40 -6 40 -4
0 -8 5 -8 11 0 5 5 7 10 4 6 -3 10 -2 10 3 0 6 -7 12 -15 16 -22 8 -18 29 10
56 31 29 32 44 4 35 -16 -5 -20 -3 -17 6 3 8 18 14 34 14 24 0 29 4 29 24 0
15 8 27 22 32 30 11 43 34 15 27 -12 -4 -20 -2 -16 3 3 5 0 9 -5 9 -6 0 -11
-6 -11 -14 0 -8 -4 -17 -9 -20 -15 -10 -43 6 -37 20 3 8 1 14 -4 14 -6 0 -10
-11 -10 -25 0 -14 5 -25 10 -25 6 0 10 -5 10 -11 0 -7 -10 -9 -24 -5 -28 7
-58 -2 -50 -15 3 -5 0 -9 -5 -9 -6 0 -11 4 -11 10 0 5 -8 6 -17 3 -11 -4 -12
-8 -5 -11 7 -2 12 -14 12 -27 0 -13 5 -25 12 -27 6 -2 12 -17 14 -34 5 -61 17
-114 26 -114 14 0 1 -49 -17 -67 -8 -8 -15 -19 -15 -24 0 -13 -19 -11 -35 4
-42 37 -45 38 -45 21 0 -16 -2 -16 -20 1 -22 20 -24 33 -10 55 9 13 11 13 20
0 11 -17 12 -14 14 30 0 16 -5 32 -11 35 -7 2 -13 9 -13 15 0 6 5 8 10 5 6 -3
10 -1 10 4 0 6 6 11 14 11 12 0 46 40 46 55 0 3 -8 5 -17 5 -13 0 -14 3 -6 11
14 14 -6 39 -31 39 -18 0 -21 15 -6 25 22 14 8 23 -34 22 l-43 0 9 -34 c7 -27
5 -38 -11 -59 -11 -14 -17 -32 -14 -40 7 -19 17 -18 38 6 15 16 15 22 5 35 -7
8 -9 15 -6 15 11 0 36 -27 36 -38 0 -6 6 -13 13 -15 6 -3 2 -6 -10 -6 -13 -1
-23 -7 -23 -16 0 -10 -10 -15 -30 -15 -24 0 -30 4 -30 22 l0 22 -16 -23 c-10
-14 -13 -26 -7 -30 6 -3 12 -25 16 -48 5 -40 4 -43 -19 -43 l-24 0 30 -47 c31
-49 29 -63 -9 -66 -15 -1 -27 -12 -36 -34 -15 -36 -18 -37 -44 -24 -12 7 -18
6 -18 -2 0 -7 -4 -20 -8 -29 -5 -13 -2 -15 13 -11 11 2 23 0 26 -6 4 -6 0 -11
-8 -11 -9 0 -16 -4 -16 -8 0 -4 -9 -8 -21 -8 -17 0 -20 5 -17 32 3 29 2 31
-15 22 -11 -5 -34 -7 -52 -4 -21 4 -36 2 -40 -5 -6 -8 -9 -8 -14 0 -5 8 -15 5
-31 -9 -19 -16 -21 -23 -11 -29 11 -7 11 -13 0 -32 -11 -20 -14 -21 -17 -7 -2
9 -12 20 -23 23 -11 4 -18 14 -17 22 5 26 -16 25 -28 -1 -9 -18 -9 -28 0 -37
8 -8 8 -13 -1 -16 -7 -3 -13 -11 -13 -19 0 -9 -5 -12 -10 -9 -7 4 -7 11 -2 18
5 7 4 22 -4 37 -10 18 -14 20 -14 8 0 -9 -5 -20 -12 -24 -7 -5 -9 0 -6 14 3
12 1 23 -4 24 -6 2 2 18 17 36 28 34 26 57 -6 47 -14 -5 -17 -3 -13 9 3 9 11
16 17 16 6 0 7 3 4 6 -4 4 -13 1 -22 -6 -13 -11 -15 -9 -15 13 0 14 4 36 9 50
14 36 1 49 -31 33 -24 -13 -26 -12 -21 2 4 13 2 12 -10 -3 -22 -28 -11 -49 16
-30 30 21 35 19 29 -10 -3 -19 -9 -24 -22 -20 -10 3 -21 1 -25 -5 -11 -18 -25
0 -25 31 0 28 -9 37 -23 22 -4 -3 -2 -12 4 -19 8 -10 8 -22 1 -44 -10 -28 -10
-30 9 -20 11 6 24 8 29 5 6 -3 10 0 10 7 0 7 12 1 25 -15 18 -21 22 -33 16
-50 -11 -29 -38 -34 -46 -8 -5 17 -10 19 -24 11 -10 -5 -29 -7 -41 -5 -13 2
-20 2 -17 -2 8 -8 -23 -32 -42 -33 -8 0 -11 6 -7 15 3 9 -3 19 -14 25 -23 12
-27 35 -5 26 9 -3 15 0 15 9 0 8 -7 15 -16 15 -11 0 -14 5 -10 16 5 14 4 15
-9 4 -18 -15 -22 -13 -27 15 -2 14 3 20 16 20 11 0 21 6 24 14 4 11 -2 13 -26
8 -20 -4 -32 -2 -36 6 -2 7 -5 3 -5 -8 -1 -11 6 -33 14 -49 8 -15 15 -37 15
-47 0 -11 7 -19 15 -19 8 0 15 -6 15 -14 0 -7 7 -19 15 -26 15 -13 11 -35 -6
-25 -5 4 -8 -5 -7 -19 1 -15 8 -26 15 -26 13 0 6 -30 -9 -41 -5 -3 -6 -13 -3
-22 5 -10 26 -18 63 -23 32 -5 60 -7 64 -6 3 1 31 2 61 3 46 2 59 7 82 31 28
29 29 29 103 18 1 0 2 -5 2 -11 0 -5 -6 -7 -12 -3 -8 4 -10 3 -5 -2 5 -5 12
-9 15 -9 20 -2 52 -17 48 -23 -2 -4 -20 -7 -40 -6 -20 1 -36 0 -36 -3 0 -9 55
-52 68 -53 15 0 16 -20 1 -20 -7 0 -9 -67 -6 -220 2 -140 0 -223 -6 -227 -6
-3 -7 -1 -3 5 3 6 -2 13 -12 16 -47 15 -258 36 -363 36 -149 0 -217 13 -223
43 -3 12 -8 101 -11 197 -4 96 -10 177 -15 180 -5 3 -12 18 -15 33 -4 15 -14
27 -22 27 -9 0 -13 6 -9 15 3 9 0 15 -9 15 -18 0 -19 -12 -2 -29 10 -10 9 -15
-4 -24 -9 -7 -14 -18 -11 -26 3 -8 0 -11 -6 -7 -6 3 -10 19 -8 34 3 27 -9 52
-25 52 -5 0 -6 -6 -3 -14 3 -8 -3 -16 -15 -19 -12 -3 -21 -1 -21 4 0 5 5 9 11
9 5 0 7 4 4 10 -3 5 -16 9 -29 8 -18 -2 -22 -7 -18 -26 4 -21 2 -22 -22 -16
-20 5 -26 3 -26 -11 0 -12 5 -15 20 -10 15 5 20 2 20 -12 0 -11 3 -14 8 -7 4
6 18 17 30 23 22 12 23 11 17 -11 -4 -12 -12 -27 -18 -33 -7 -7 -8 -6 -3 3 9
14 -6 16 -20 2 -13 -13 -5 -82 8 -74 6 4 14 0 19 -7 4 -8 12 -14 16 -14 4 0
17 -6 28 -13 19 -13 19 -13 -2 -7 -27 7 -73 -21 -73 -44 0 -10 7 -26 15 -37
14 -19 14 -19 15 3 0 12 -6 24 -12 26 -8 3 -6 6 5 6 9 1 17 9 17 19 1 15 2 15
13 2 18 -22 54 -40 78 -40 17 0 19 3 10 14 -9 11 -7 15 7 18 15 4 19 -1 20
-32 2 -31 -1 -39 -20 -45 -13 -4 -31 -6 -40 -5 -10 1 -18 -4 -18 -9 0 -17 -37
-13 -44 5 -3 8 -11 12 -17 8 -7 -4 -17 0 -24 9 -10 14 -15 14 -30 3 -16 -12
-17 -13 -1 -19 11 -5 15 -3 10 5 -5 7 -3 8 6 3 10 -6 6 -14 -15 -31 -16 -13
-26 -26 -22 -30 4 -4 13 0 20 8 16 21 54 32 62 18 3 -6 -3 -10 -14 -10 -12 0
-21 -4 -21 -10 0 -5 5 -10 10 -10 6 0 10 -4 10 -9 0 -5 -13 -7 -29 -5 -16 3
-32 0 -36 -6 -3 -6 -11 -8 -16 -5 -5 4 -9 -1 -9 -9 0 -20 -16 -21 -24 -1 -3 8
-10 15 -15 15 -5 0 -4 -11 2 -24 8 -17 23 -26 49 -30 35 -6 55 -24 26 -23 -34
1 -58 -4 -58 -12 0 -5 8 -8 17 -7 12 1 19 -7 20 -24 1 -14 0 -18 -3 -7 -6 18
-24 24 -24 7 0 -5 -7 -10 -16 -10 -14 0 -14 -3 -4 -15 7 -8 21 -15 32 -15 14
0 19 -6 16 -22 -2 -12 -9 -23 -16 -26 -7 -2 -10 2 -6 12 4 10 0 18 -10 22 -26
10 -29 0 -12 -40 15 -35 14 -36 -7 -36 -21 0 -21 -1 -3 -17 14 -14 20 -15 23
-5 3 7 11 19 19 26 8 8 14 19 14 24 0 5 9 17 19 26 19 17 19 17 14 -3 -3 -12
-9 -24 -14 -26 -16 -11 3 -36 22 -30 11 4 19 2 19 -4 0 -5 9 -12 19 -16 13 -4
17 -12 14 -25 -6 -23 7 -26 25 -8 10 10 15 10 22 -2 5 -8 10 -10 10 -5 0 6 5
3 10 -5 8 -12 15 -9 44 19 20 19 38 32 41 30 5 -5 13 -44 14 -68 1 -13 3 -13
13 -2 10 10 10 15 1 18 -26 10 31 83 65 83 14 -1 13 -4 -6 -20 -13 -10 -24
-28 -25 -40 -1 -11 -5 -20 -9 -20 -4 0 -8 -5 -8 -11 0 -6 5 -9 12 -7 7 3 28
-6 47 -19 31 -21 36 -22 51 -8 22 20 27 19 33 -5 3 -13 11 -18 26 -15 12 2 19
0 17 -4 -3 -5 -63 -11 -133 -15 -70 -4 -165 -13 -210 -20 -46 -6 -83 -8 -83
-3 0 4 -5 5 -11 1 -6 -3 -7 -9 -2 -13 11 -8 10 -71 -1 -71 -6 0 -20 10 -34 23
-13 12 -33 23 -45 24 -85 7 -324 14 -489 14 l-198 0 0 129 c0 116 2 132 23
164 l22 35 80 0 c44 1 142 -4 219 -9 84 -6 143 -7 150 -1 6 5 22 11 36 13 32
4 66 56 80 124 l11 54 43 0 c23 0 47 5 54 12 19 19 14 83 -10 130 -27 53 -47
69 -74 63 -16 -4 -23 3 -35 38 -12 33 -24 46 -57 62 -41 19 -41 20 -35 60 3
22 12 55 19 74 8 19 12 36 10 39 -5 5 -25 -41 -45 -100 -9 -27 -18 -38 -32
-38 -17 0 -19 5 -14 38 4 20 9 45 12 54 3 13 0 16 -11 12 -8 -3 -15 -9 -14
-12 1 -4 -6 -24 -15 -44 -10 -21 -17 -45 -17 -53 0 -12 -6 -15 -22 -9 -13 4
-52 6 -88 5 -36 -1 -116 1 -177 5 l-113 6 0 29 0 29 -72 0 c-110 0 -118 -4
-118 -56 0 -44 0 -44 -37 -46 -21 0 -45 -1 -53 0 -8 0 -73 2 -144 3 -124 2
-130 1 -148 -21 -10 -12 -23 -42 -29 -67 -6 -24 -15 -46 -19 -48 -5 -3 -52 2
-106 10 -72 12 -105 13 -127 5 -16 -5 -40 -10 -52 -10 -34 0 -57 -32 -50 -70
l6 -33 -113 5 c-62 3 -119 3 -125 1 -10 -4 -13 -60 -13 -235 l0 -230 87 2 c49
2 103 2 121 2 l32 -2 0 -154 c0 -126 -3 -155 -15 -160 -8 -3 -40 4 -72 16 -32
11 -79 23 -105 25 l-48 5 0 -420 0 -419 118 5 118 5 0 -129 -1 -129 -115 -6
c-63 -4 -116 -7 -117 -8 -2 0 -3 -577 -3 -1281 l0 -1280 5120 0 5120 0 0 244
0 245 -27 4 -28 4 27 2 28 1 0 3160 0 3160 -3525 0 c-1939 0 -3525 -2 -3525
-4 0 -3 8 -12 17 -22 13 -12 14 -19 5 -22 -9 -3 -9 -9 -1 -24 10 -18 12 -18
28 -4 21 19 65 10 57 -11 -3 -8 -6 -18 -6 -23 0 -4 -9 -6 -20 -3 -11 3 -20 12
-20 20 0 12 -3 12 -16 -2 -15 -15 -18 -15 -35 1 -12 11 -19 31 -19 56 l0 38
-77 0 c-70 0 -79 -2 -105 -27 -15 -15 -29 -21 -29 -15 -1 7 -2 18 -3 25 -1 17
-46 22 -46 5z m2404 -650 c-2 -13 -2 -17 2 -10 6 13 25 17 22 5 -4 -15 13 -51
27 -56 8 -4 11 -14 8 -26 -3 -12 -9 -18 -14 -15 -5 3 -9 -2 -9 -10 0 -9 -4
-16 -10 -16 -6 0 -6 -9 0 -24 5 -13 7 -32 5 -42 -2 -11 -4 -21 -4 -24 -1 -3
-5 1 -10 8 -6 10 -10 7 -15 -14 -4 -16 -3 -30 4 -34 7 -5 6 -11 -5 -20 -10 -8
-14 -22 -11 -34 3 -12 1 -27 -3 -35 -5 -7 -5 -27 -1 -42 7 -22 5 -29 -5 -29
-19 0 -23 20 -11 58 8 26 7 35 -5 43 -12 8 -11 11 4 20 25 15 21 35 -12 58
-26 19 -29 27 -35 109 -4 49 -4 101 0 116 6 24 11 27 36 24 16 -3 31 -1 34 4
9 14 12 9 8 -14z m576 -118 c14 -14 20 -33 20 -65 0 -25 -1 -47 -2 -48 -2 -2
3 -11 11 -20 7 -10 10 -17 7 -17 -4 0 -1 -10 6 -22 7 -13 11 -27 10 -31 -1 -5
2 -6 8 -2 5 3 10 -2 11 -12 1 -13 3 -11 10 7 7 20 7 17 3 -13 -5 -38 21 -137
54 -202 8 -16 59 -75 112 -130 108 -111 130 -146 130 -204 0 -22 14 -73 30
-114 19 -47 30 -93 30 -123 0 -26 5 -73 12 -105 10 -49 9 -63 -6 -103 -10 -26
-29 -60 -43 -77 -14 -16 -38 -69 -53 -118 -15 -49 -42 -115 -60 -147 -18 -33
-57 -107 -86 -167 -55 -110 -56 -117 -68 -287 -6 -88 -42 -193 -121 -355 -141
-289 -138 -281 -140 -375 -1 -47 -5 -96 -9 -110 -11 -39 -59 -140 -66 -140 -7
0 4 58 22 118 11 36 1 162 -13 162 -15 0 -10 115 7 156 29 71 75 164 81 164 5
0 -4 -98 -13 -135 -5 -17 -2 -16 15 5 33 41 72 149 77 214 2 34 8 70 13 81 41
96 41 93 25 105 -12 10 -14 8 -15 -14 -2 -43 -26 -116 -39 -116 -4 0 -11 -15
-14 -32 -6 -28 -8 -30 -17 -16 -7 13 -5 24 6 41 9 15 15 43 14 73 -1 27 0 54
1 59 1 6 3 19 4 30 0 12 8 19 19 19 21 -2 21 -5 -3 50 -10 25 -15 46 -10 46 6
0 10 12 10 26 0 23 3 25 26 20 20 -5 27 -3 31 14 3 11 9 20 14 20 4 0 8 21 8
48 0 26 7 65 16 87 10 22 22 51 28 65 6 14 12 30 13 35 1 6 3 12 4 15 4 13 10
49 15 95 6 63 10 85 20 109 5 11 3 21 -4 26 -15 9 12 40 36 40 11 0 14 6 10
21 -6 23 11 79 24 79 14 0 10 48 -7 82 -15 28 -14 31 4 49 20 18 20 59 0 59
-6 0 -3 11 6 25 10 16 14 34 10 50 -5 20 -2 25 12 26 17 1 17 2 1 6 -9 2 -15
9 -12 14 4 5 1 17 -4 26 -8 13 -10 14 -11 3 0 -10 -3 -11 -11 -3 -8 8 -7 17 1
34 11 19 10 24 -6 36 -10 7 -13 13 -6 13 6 0 9 7 5 17 -4 11 -3 14 5 9 9 -5 9
-1 3 17 -6 14 -7 28 -4 31 4 3 -1 6 -10 6 -10 0 -17 -8 -17 -17 0 -9 -3 -13
-7 -9 -5 4 -8 21 -8 37 0 16 3 29 8 29 4 0 7 5 7 10 0 6 -7 10 -15 10 -9 0
-12 6 -9 15 4 10 0 15 -12 15 -9 0 -14 3 -11 7 4 3 2 12 -4 20 -9 10 -6 13 16
13 21 0 26 4 21 16 -3 9 -6 27 -6 40 0 13 -9 33 -19 43 -11 11 -17 22 -14 25
3 3 -7 15 -21 28 -21 18 -28 35 -33 80 -6 60 -17 68 -28 18 -4 -19 -11 -27
-20 -24 -7 3 -19 -4 -25 -16 -10 -19 -7 -27 19 -60 25 -32 28 -40 16 -50 -11
-9 -16 -7 -24 8 -6 11 -8 22 -4 25 3 3 -10 25 -28 48 -18 23 -34 49 -34 58 -5
64 -5 66 -14 52 -16 -24 -50 5 -57 49 -8 47 -24 43 -24 -5 0 -19 -5 -37 -12
-41 -8 -5 -9 6 -3 42 4 27 8 65 9 84 1 30 -2 35 -21 33 -27 -3 -45 26 -41 65
2 20 11 30 33 37 28 10 30 9 35 -20 3 -16 11 -29 18 -27 10 2 14 -5 14 -28 1
-3 -2 -20 -5 -37 -6 -28 -4 -33 13 -33 11 0 20 5 20 10 0 6 7 10 15 10 8 0 15
-7 15 -15 0 -8 5 -15 10 -15 6 0 10 6 8 13 -2 6 6 26 18 42 30 44 38 59 28 53
-5 -4 -9 11 -9 32 0 42 10 41 18 0 3 -16 5 -9 6 18 1 52 -13 82 -39 82 -11 0
-20 5 -20 10 0 17 29 11 50 -10z m-226 -591 c-13 -27 -14 -35 -3 -56 12 -22
11 -27 -4 -38 -10 -7 -27 -11 -38 -8 -20 5 -76 -43 -71 -60 1 -5 -2 -6 -6 -3
-5 3 -17 -3 -27 -14 -10 -11 -23 -20 -29 -20 -6 0 -4 5 4 10 12 7 12 12 2 22
-10 10 -15 10 -22 -2 -6 -8 -8 -20 -5 -27 2 -7 -1 -15 -7 -19 -7 -5 -8 -2 -3
6 6 10 4 11 -11 6 -30 -13 -63 -15 -70 -5 -3 5 1 9 8 9 7 0 19 9 26 20 8 13 8
20 2 20 -12 0 41 47 82 73 17 10 32 33 39 57 13 43 20 47 94 53 22 2 43 4 48
5 4 1 0 -12 -9 -29z m140 -113 c-3 -7 2 -16 11 -20 9 -3 14 -10 10 -16 -3 -5
-8 -40 -10 -76 -4 -61 -3 -66 10 -48 13 18 14 16 15 -26 0 -32 3 -41 10 -30
16 26 27 -29 23 -115 -3 -58 -1 -88 10 -108 10 -19 17 -24 20 -15 4 9 6 8 6
-3 1 -21 -21 -30 -40 -18 -28 18 -47 9 -59 -26 -7 -20 -9 -43 -6 -51 3 -8 2
-12 -3 -9 -10 6 -13 -1 -31 -75 -23 -93 -22 -87 -10 -67 6 9 17 17 25 17 8 0
14 -8 15 -17 0 -10 1 -29 2 -43 3 -39 -10 -117 -22 -140 -6 -11 -8 -25 -5 -31
4 -5 2 -16 -4 -23 -6 -6 -13 -31 -16 -55 -3 -23 -10 -51 -15 -62 -6 -11 -8
-24 -5 -29 3 -5 1 -11 -5 -15 -6 -4 -8 -11 -5 -16 4 -5 -2 -9 -11 -9 -16 0
-16 -1 -1 -18 10 -10 14 -21 11 -25 -4 -3 -8 -23 -9 -44 -1 -21 -9 -66 -18
-100 -8 -35 -11 -63 -7 -63 5 0 12 14 15 32 6 27 9 29 17 14 13 -23 2 -154
-21 -241 -6 -22 -11 -76 -11 -120 0 -44 -6 -103 -14 -130 -7 -28 -11 -59 -9
-70 2 -11 0 -36 -3 -55 -6 -34 -7 -35 -17 -11 -11 23 -12 21 -23 -30 -7 -30
-17 -69 -23 -86 -45 -134 -51 -154 -40 -148 5 4 9 13 9 21 0 8 5 14 11 14 6 0
9 -6 6 -12 -19 -51 -19 -61 -3 -55 14 6 15 0 11 -36 -5 -40 -4 -40 5 -10 6 18
15 35 20 38 12 7 1 -85 -12 -101 -4 -6 -6 -18 -3 -26 4 -9 -1 -22 -9 -31 -8
-8 -12 -17 -9 -21 4 -3 1 -6 -5 -6 -6 0 -13 4 -17 10 -3 5 -12 7 -19 4 -9 -4
-22 12 -37 45 -19 39 -30 51 -54 57 -16 3 -36 11 -44 18 -8 6 -62 12 -130 13
-64 1 -179 6 -256 11 -77 5 -174 7 -215 5 -41 -2 -86 1 -100 6 -14 6 -43 12
-65 14 -22 2 -47 7 -55 12 -13 8 -13 7 -1 -9 19 -23 2 -39 -35 -34 -18 2 -33
11 -39 26 -5 12 -13 22 -17 22 -19 0 -6 30 16 36 26 6 61 62 71 114 16 88 12
108 -15 75 -7 -9 -15 -13 -18 -11 -2 3 -13 1 -23 -5 -28 -15 -23 -4 24 54 24
30 57 78 74 108 44 78 100 234 108 304 11 87 77 270 150 414 47 95 64 140 68
182 4 42 27 104 90 242 87 192 88 197 50 235 -8 9 -13 39 -13 85 0 61 5 80 29
122 35 62 53 77 91 80 34 3 50 -12 29 -26 -12 -7 -12 -9 0 -9 11 0 11 -3 0
-17 -12 -15 -12 -16 1 -8 13 8 13 7 1 -8 -8 -10 -11 -28 -8 -46 4 -16 1 -36
-6 -46 -7 -9 -11 -33 -9 -52 l5 -36 27 32 c17 19 30 48 34 76 8 51 24 65 76
65 11 0 20 6 20 14 0 11 -8 12 -35 6 -19 -4 -35 -4 -35 1 0 12 35 29 59 29 12
0 21 5 21 11 0 7 -11 9 -27 6 -26 -5 -26 -4 -8 9 22 17 135 19 135 3 0 -5 6
-7 13 -3 9 5 9 4 1 -5 -9 -10 -21 -10 -49 -2 -21 6 -42 8 -47 5 -20 -12 -5
-23 43 -29 29 -4 59 -15 70 -26 19 -19 26 -69 10 -69 -5 0 -11 -10 -15 -23 -4
-18 -13 -23 -42 -25 -48 -4 -54 -8 -52 -38 3 -32 41 -74 67 -74 29 0 35 -17 7
-24 -19 -5 -22 -11 -18 -32 3 -19 1 -25 -7 -20 -6 4 -11 2 -11 -3 0 -6 -9 -11
-20 -11 -22 0 -28 -25 -7 -33 8 -4 7 -6 -3 -6 -12 -1 -15 -11 -12 -43 4 -43 4
-43 -16 -23 -12 12 -16 24 -11 30 16 16 10 37 -17 62 -17 16 -24 31 -21 44 3
13 1 19 -6 16 -7 -2 -12 -25 -12 -56 1 -49 0 -52 -22 -48 -39 7 -37 -26 6
-114 22 -45 37 -87 35 -94 -3 -7 2 -27 10 -43 12 -23 13 -32 3 -35 -9 -4 -8
-8 3 -16 9 -7 11 -11 3 -11 -7 0 -17 8 -22 18 -9 14 -12 14 -20 3 -12 -18 -83
-30 -161 -26 -56 2 -58 2 -20 -5 l45 -7 -57 -1 -57 -2 -6 38 c-4 20 -10 46
-15 57 -7 17 -9 16 -9 -10 -1 -17 -5 -45 -10 -63 l-10 -32 65 0 c38 0 64 -4
64 -11 0 -5 5 -7 12 -3 7 4 8 3 4 -4 -4 -7 -14 -12 -22 -12 -9 0 -12 -5 -8
-11 3 -6 1 -15 -6 -19 -9 -5 -9 -13 -2 -27 13 -24 4 -72 -9 -51 -6 9 -9 9 -9
1 0 -6 5 -15 10 -18 6 -3 10 -14 9 -23 0 -14 -2 -13 -9 3 -8 19 -9 19 -9 1 -1
-11 7 -28 16 -38 10 -11 13 -19 8 -18 -21 5 -36 0 -30 -10 3 -5 1 -10 -4 -10
-6 0 -11 -9 -11 -21 0 -11 4 -17 10 -14 6 3 7 -1 4 -9 -4 -9 -1 -16 6 -16 7 0
3 -9 -10 -20 -16 -14 -35 -19 -67 -18 l-45 2 7 61 c3 33 9 74 11 90 5 28 4 28
-8 10 -7 -11 -14 -33 -15 -50 -5 -46 -34 -130 -55 -157 l-19 -23 6 25 c4 18 3
21 -4 10 -5 -8 -11 -47 -13 -87 -2 -39 -6 -69 -9 -67 -4 2 -11 -15 -17 -38 -8
-32 -8 -44 1 -50 7 -4 2 -14 -16 -28 -15 -12 -27 -29 -27 -38 0 -13 -2 -14 -8
-4 -6 8 -13 -1 -22 -30 -7 -24 -21 -63 -30 -88 -9 -25 -22 -58 -27 -75 -6 -16
-14 -39 -18 -50 -6 -16 -3 -16 15 5 15 18 18 19 11 5 -17 -33 -37 -55 -50 -55
-6 0 -11 -6 -11 -13 0 -8 -9 -22 -19 -31 -31 -28 -34 -1 -5 45 26 41 84 164
84 177 0 4 -27 -40 -59 -97 -40 -70 -59 -115 -59 -138 0 -30 2 -33 22 -28 11
4 33 15 48 26 15 10 31 19 35 20 9 0 83 100 126 169 19 29 26 36 22 20 -4 -14
-9 -35 -12 -47 -3 -12 -25 -44 -48 -72 -43 -50 -77 -115 -117 -218 -14 -40
-25 -53 -39 -53 -19 0 -20 4 -14 58 4 31 9 65 11 75 3 9 3 17 0 17 -11 0 -29
-45 -46 -117 l-18 -74 37 6 c43 8 79 8 331 2 250 -6 414 -17 420 -28 3 -4 19
1 36 11 24 16 39 42 74 132 41 106 90 300 90 359 0 15 10 58 22 95 19 60 21
90 20 229 -1 88 2 186 8 219 12 74 50 196 61 196 5 0 5 7 2 17 -4 9 -2 14 3
11 6 -4 10 41 11 110 1 135 23 274 59 385 l26 79 -22 56 c-18 44 -24 85 -28
175 -4 109 -3 122 18 163 21 40 47 63 34 30z m-2384 -676 c38 0 60 4 63 13 3
9 9 9 27 -2 13 -7 66 -15 121 -18 l98 -6 -2 -250 -2 -251 -106 3 c-86 2 -108
0 -118 -13 -17 -20 -60 -21 -67 -1 -5 12 -31 15 -150 15 l-144 0 0 94 c0 55
-4 98 -10 101 -6 4 -8 15 -5 26 4 11 2 19 -5 19 -7 0 -9 8 -5 21 4 12 8 27 9
33 1 6 5 16 9 23 4 6 10 55 14 108 l6 96 93 -4 c79 -4 94 -3 100 12 6 14 7 14
11 -1 4 -15 16 -18 63 -18z m1174 -27 l99 -6 -5 -118 c-3 -67 -1 -122 4 -127
6 -6 6 -40 1 -88 l-8 -78 -37 -9 c-37 -9 -53 -27 -23 -27 8 0 15 -4 15 -10 0
-6 -9 -6 -24 0 -14 5 -58 4 -112 -2 -49 -6 -150 -13 -225 -15 -135 -4 -136 -4
-143 19 -3 13 -9 123 -13 245 l-6 222 149 4 c82 2 167 2 189 0 22 -2 84 -6
139 -10z m-3764 -173 c4 7 13 9 19 6 7 -5 11 3 12 21 l1 28 16 -35 c11 -26 17
-30 20 -17 2 9 8 15 13 12 5 -4 9 9 10 27 l1 33 13 -30 c13 -27 14 -28 15 -7
0 30 16 20 25 -15 3 -15 12 -32 18 -36 9 -6 9 -10 0 -14 -7 -2 -13 -18 -13
-33 0 -35 -17 -49 -23 -18 -4 25 -9 17 -23 -37 -8 -29 -9 -28 -12 14 -5 62
-42 99 -42 42 0 -17 -4 -33 -10 -36 -6 -4 -10 11 -10 37 -1 36 -2 40 -11 24
-9 -14 -13 -16 -20 -5 -5 8 -10 -6 -15 -39 -8 -65 -24 -78 -24 -20 0 31 -3 39
-10 28 -8 -12 -10 -10 -10 10 l-1 25 -13 -24 c-13 -23 -13 -23 -20 17 -8 51 1
77 20 61 11 -9 14 -8 14 2 0 11 2 11 10 -1 7 -11 10 -5 11 25 l1 40 15 -49
c10 -32 18 -44 23 -36z m536 22 l12 -37 1 30 2 30 15 -27 c8 -16 23 -28 34
-28 15 0 20 9 22 43 l4 42 21 -45 c12 -25 22 -37 22 -27 1 9 8 17 16 17 7 0
19 -8 24 -17 10 -17 10 -17 11 -1 0 32 19 29 29 -4 l9 -33 1 42 c1 57 16 62
34 11 9 -24 16 -35 16 -25 1 12 5 16 14 10 21 -13 47 -13 48 0 1 6 5 -4 9 -23
10 -43 5 -53 -21 -39 -17 8 -23 7 -35 -8 -13 -17 -13 -16 -15 7 -1 19 -4 15
-12 -17 -15 -53 -27 -65 -27 -27 0 16 -5 36 -10 44 -7 11 -10 7 -10 -17 0 -17
-4 -35 -10 -38 -6 -4 -10 6 -10 23 0 36 -8 45 -27 27 -21 -21 -33 -18 -34 8 0
21 -1 21 -9 2 -5 -11 -9 -33 -9 -48 -1 -18 -6 -27 -13 -24 -13 4 -15 10 -17
59 -1 20 -5 26 -16 22 -9 -4 -15 0 -16 7 0 8 -9 -4 -19 -26 l-19 -40 0 33 c-1
47 -16 39 -18 -9 -1 -38 -18 -77 -21 -47 -14 197 -6 247 24 150z m3966 -542
c17 0 29 -2 26 -5 -7 -8 -218 -20 -268 -16 -14 1 -38 -1 -54 -5 -25 -6 -28 -5
-22 11 3 10 1 24 -5 32 -7 7 -9 16 -5 20 3 3 6 1 6 -5 0 -14 56 -16 64 -3 3 5
17 11 31 13 18 4 25 1 25 -10 0 -10 4 -12 13 -5 21 17 67 22 67 7 0 -20 19
-27 36 -13 13 10 17 10 25 -2 6 -9 7 2 4 31 l-4 45 15 -47 c14 -44 18 -48 46
-48z m-2518 22 c1 -19 5 -28 14 -25 6 3 12 10 12 15 0 6 11 8 25 6 13 -3 26 0
29 6 2 6 5 3 5 -6 1 -10 5 -18 10 -18 5 0 8 -7 7 -17 -1 -12 13 -19 54 -29 63
-14 75 -10 41 15 -16 12 -20 21 -12 25 6 4 11 2 11 -3 0 -6 5 -11 11 -11 5 0
7 5 4 10 -3 6 1 10 11 10 13 0 14 -3 5 -14 -16 -19 -3 -50 15 -35 7 6 18 8 24
4 5 -3 21 6 34 22 l25 28 -3 -37 c-2 -21 3 -46 10 -55 11 -16 13 -16 19 9 4
15 2 41 -3 57 -12 34 -8 41 25 41 27 0 31 -26 8 -56 -14 -18 -22 -64 -9 -51
12 12 33 -17 22 -30 -14 -18 10 -16 42 2 33 19 60 19 60 0 0 -8 -7 -15 -15
-15 -9 0 -12 -6 -9 -15 7 -17 3 -19 -91 -34 -38 -6 -79 -13 -90 -16 -19 -6
-20 -2 -18 57 1 34 -1 57 -5 51 -5 -7 -29 -8 -72 -2 -55 6 -396 19 -523 19
-36 0 -37 1 -22 16 13 13 21 14 38 6 29 -13 114 -14 122 -2 3 6 -1 10 -9 10
-13 0 -12 4 5 21 15 15 18 24 9 34 -8 10 -8 15 0 20 7 4 13 -1 16 -12 4 -14
14 -19 40 -19 20 0 39 -6 43 -13 7 -10 15 -10 40 3 17 9 31 18 31 19 0 1 -4
18 -10 37 -9 31 -9 33 7 18 8 -9 16 -30 17 -46z m-1894 -197 c17 1 59 -69 60
-100 1 -17 2 -18 13 -5 7 8 22 15 35 16 18 0 25 -8 34 -39 11 -36 13 -38 25
-21 7 11 20 27 29 38 15 18 16 18 28 0 20 -30 27 -71 20 -123 l-6 -49 -42 42
-41 41 -3 -47 c-3 -45 -5 -48 -31 -48 -18 0 -31 7 -35 17 -6 15 -8 15 -16 3
-6 -8 -10 -28 -10 -43 0 -42 -16 -64 -45 -64 -25 0 -25 0 -25 83 l0 84 -35 0
c-33 0 -35 2 -35 35 0 35 8 41 48 36 14 -2 15 38 3 111 -6 34 -5 45 3 40 6 -5
18 -8 26 -7z m-325 -80 c7 -27 16 -59 19 -70 2 -11 2 14 -1 55 -4 59 -3 73 7
63 7 -6 18 -9 26 -6 18 7 35 -55 41 -152 6 -105 -5 -159 -35 -163 -21 -3 -22
0 -22 80 0 57 -3 78 -10 68 -5 -8 -10 -37 -10 -65 0 -80 -7 -95 -45 -95 l-32
0 -7 123 c-4 67 -9 141 -12 164 -5 35 -3 42 13 45 46 9 54 4 68 -47z m726 -68
c0 -7 4 -2 9 11 12 28 25 28 44 0 l16 -22 0 22 c0 41 28 24 39 -25 14 -59 3
-126 -22 -131 -12 -2 -17 3 -18 20 l0 23 -11 -22 c-16 -34 -38 -29 -39 10 l-1
32 -10 -32 c-12 -35 -32 -43 -42 -17 -3 9 -6 49 -6 90 0 72 1 74 20 64 11 -6
20 -16 21 -23z m159 -11 c9 -21 9 -21 9 2 1 28 12 28 37 1 l19 -21 5 26 c5 25
6 26 25 12 17 -12 20 -25 19 -80 -1 -72 -3 -79 -28 -70 -10 4 -16 18 -17 38
l-1 31 -10 -32 c-13 -39 -38 -44 -38 -8 l0 25 -22 -22 c-26 -26 -25 -28 -30
68 -3 50 -1 61 10 57 7 -3 18 -15 22 -27z m228 7 l10 -28 1 28 c1 33 25 36 43
5 l12 -23 6 24 6 25 22 -24 22 -24 0 22 c0 26 18 29 36 5 13 -17 13 -17 14 0
0 25 31 21 38 -5 l5 -22 8 22 c19 51 53 3 51 -73 -2 -82 -12 -124 -28 -118 -8
3 -14 19 -14 40 0 20 -4 32 -10 28 -5 -3 -10 -17 -10 -31 0 -15 -6 -24 -15
-24 -10 0 -15 11 -15 35 0 19 -4 35 -10 35 -5 0 -10 -13 -10 -28 0 -44 -28
-36 -35 10 -6 35 -8 37 -20 21 -11 -14 -16 -15 -28 -5 -13 11 -16 10 -19 -10
-2 -12 -11 -24 -20 -26 -14 -3 -18 4 -19 30 l-1 33 -10 -32 c-13 -39 -38 -44
-38 -7 0 35 -19 67 -36 60 -16 -6 -20 39 -4 49 6 3 10 -1 10 -9 0 -9 5 -16 10
-16 6 0 10 14 10 30 0 38 25 40 38 3z m1225 -40 c-132 -154 -184 -271 -203
-451 -18 -172 27 -393 104 -509 42 -64 31 -80 -14 -21 -45 62 -97 173 -116
253 -27 107 -24 288 4 389 37 128 95 230 184 319 42 42 80 77 83 77 4 0 -15
-26 -42 -57z m270 -160 c-3 -10 -9 -22 -13 -28 -14 -19 -40 -110 -44 -155 -2
-25 -13 -65 -23 -90 -14 -34 -17 -55 -12 -85 4 -22 5 -49 2 -60 -6 -21 -31
-44 -48 -45 -5 0 -3 5 5 10 12 7 11 10 -5 17 -25 10 -29 43 -10 79 14 28 11
49 -6 39 -14 -9 -11 8 7 33 13 18 13 22 1 22 -19 0 -10 47 14 71 19 19 19 18
19 -1 0 -11 4 -20 10 -20 5 0 7 6 4 14 -3 8 -1 17 5 20 6 4 15 26 22 49 13 49
60 147 71 147 4 0 5 -8 1 -17z m3367 -148 c0 -17 2 -18 11 -5 14 20 2 -24 -16
-60 -7 -14 -22 -61 -34 -105 -12 -44 -25 -87 -28 -95 -3 -8 -7 -43 -8 -78 -4
-71 -13 -170 -21 -224 -4 -28 -2 -38 8 -38 9 -1 8 -5 -4 -14 -10 -7 -18 -19
-18 -26 0 -7 -3 -11 -6 -7 -4 3 -14 -4 -24 -16 -18 -22 -18 -22 -26 28 -13 79
-8 283 10 364 19 89 57 167 80 163 9 -2 16 2 16 8 0 6 -5 8 -10 5 -17 -11 1
79 19 93 10 8 17 9 19 2 8 -24 20 -7 17 23 -3 23 -2 28 5 17 5 -8 10 -24 10
-35z m-2082 18 c-9 -10 -19 -40 -24 -68 -5 -30 -9 -41 -11 -28 -5 25 -33 21
-33 -6 0 -14 -2 -14 -10 -1 -8 12 -10 12 -10 1 0 -8 -3 -11 -7 -8 -8 9 -54
-59 -52 -76 1 -6 1 -30 0 -52 -1 -32 -4 -37 -12 -22 -5 9 -21 17 -34 17 -13 0
-29 8 -35 18 -11 16 -11 16 -6 0 5 -16 -2 -18 -46 -18 -28 0 -66 -5 -84 -12
-22 -8 -51 -8 -95 -2 -59 8 -64 11 -67 35 -5 46 17 53 177 57 80 2 152 4 159
4 7 1 26 17 43 37 41 49 119 130 119 124 0 -2 8 1 18 6 25 15 27 13 10 -6z
m-3073 -63 l23 0 -4 -207 c-1 -115 -3 -223 -3 -241 l-1 -33 -62 1 c-35 1 -87
-2 -115 -7 l-53 -9 0 112 c0 110 1 115 35 181 19 37 43 98 51 135 18 71 27 80
78 72 16 -2 39 -4 51 -4z m2546 -62 l33 -33 -71 -11 c-51 -7 -82 -18 -108 -38
-20 -16 -39 -26 -42 -22 -13 13 10 78 38 106 25 24 39 30 74 30 36 0 49 -6 76
-32z m513 -29 c5 -4 2 -15 -8 -24 -21 -21 -20 -52 3 -97 21 -42 13 -70 -13
-49 -9 7 -13 18 -9 24 3 6 1 7 -5 3 -7 -4 -12 -14 -12 -23 0 -13 -3 -13 -15
-3 -12 10 -15 10 -15 0 0 -10 -3 -10 -15 0 -17 14 -20 37 -4 42 7 2 7 17 0 48
-15 64 -14 74 12 86 23 11 65 8 81 -7z m1356 -33 c0 -6 5 -4 10 4 5 8 10 11
10 6 0 -5 6 -3 14 3 12 10 13 8 9 -8 -3 -12 -9 -21 -14 -21 -5 0 -5 -8 -2 -17
5 -12 2 -15 -9 -10 -11 4 -15 1 -13 -11 2 -9 4 -19 4 -22 1 -3 6 2 12 10 9 12
9 11 4 -5 -4 -11 -8 -26 -8 -32 0 -7 -3 -13 -7 -13 -7 0 -10 -30 -13 -115 -1
-22 2 -46 8 -54 8 -11 5 -12 -13 -7 -18 6 -21 4 -15 -10 4 -11 3 -15 -5 -11
-6 4 -12 -1 -15 -10 -3 -13 -6 -9 -11 12 -4 17 -12 39 -17 50 -8 17 -8 17 -3
-4 4 -17 3 -21 -6 -16 -7 4 -10 19 -6 36 3 16 2 29 -2 29 -4 0 -6 21 -5 46 1
37 -3 50 -19 64 -16 12 -19 23 -15 42 4 14 13 28 21 31 11 4 13 -3 9 -36 -3
-24 -2 -38 3 -34 5 5 9 14 10 20 0 7 2 20 2 30 2 11 11 17 30 18 24 0 25 1 7
9 -14 6 -16 9 -5 10 8 2 18 2 21 2 4 -1 5 8 2 18 -4 16 -2 19 11 14 9 -3 16
-11 16 -18z m183 -8 c-3 -6 3 -9 13 -8 35 4 55 0 50 -9 -3 -5 -16 -7 -29 -4
-29 8 -11 -12 22 -22 18 -5 22 -4 16 5 -5 8 -4 11 3 6 12 -7 10 -65 -3 -86 -6
-10 -4 -12 8 -7 21 8 22 -6 3 -26 -12 -12 -22 -52 -16 -67 15 -40 -6 -90 -32
-74 -7 5 -4 -5 6 -21 13 -20 14 -26 4 -18 -8 7 -19 9 -23 5 -5 -4 -5 -1 -1 6
4 6 2 12 -3 12 -6 0 -11 -5 -11 -10 0 -7 -6 -7 -19 -1 -10 6 -20 8 -22 6 -3
-2 -9 11 -15 30 -7 22 -7 32 -1 28 6 -4 7 -1 1 8 -15 24 -13 39 4 39 11 0 13
3 6 8 -19 13 -21 36 -9 107 9 55 15 70 28 69 13 -1 14 2 7 15 -6 13 -5 18 5
18 8 0 12 -4 8 -9z m272 -74 c14 4 23 11 20 16 -3 6 1 7 10 4 22 -9 13 -30
-11 -26 -18 3 -18 3 1 -12 11 -8 17 -16 13 -16 -4 0 -3 -11 2 -25 9 -23 7 -25
-17 -25 -26 0 -26 -1 -7 -14 14 -11 21 -11 26 -3 5 8 8 5 8 -8 0 -11 -11 -33
-25 -50 -25 -29 -26 -29 -5 -37 11 -4 20 -15 20 -25 0 -10 -4 -14 -8 -8 -4 6
-16 12 -26 13 -17 3 -18 1 -8 -11 10 -12 10 -16 -2 -20 -9 -4 -20 1 -25 11 -7
11 -10 12 -11 4 0 -8 -6 -12 -12 -9 -7 2 -20 0 -30 -4 -11 -6 -18 -4 -22 6 -3
8 -2 14 2 14 28 -4 41 2 35 19 -4 9 -12 21 -20 25 -16 10 -17 37 -1 37 9 0 9
3 0 12 -15 15 -16 32 -2 23 6 -3 10 3 10 14 0 10 -6 21 -12 24 -8 3 -5 8 9 13
12 5 22 14 22 19 1 6 16 10 35 10 19 0 32 4 29 8 -3 5 -14 7 -24 4 -11 -3 -20
-1 -20 4 -3 19 -5 24 -12 39 -5 8 1 4 12 -9 16 -17 27 -22 46 -17z m275 -36
c0 -5 6 -3 14 4 9 8 11 17 5 24 -7 8 -1 12 17 12 14 0 22 -3 18 -7 -5 -3 -10
-37 -12 -76 -1 -38 -5 -79 -7 -90 -2 -11 -4 -44 -4 -73 -1 -40 -4 -51 -13 -46
-10 6 -9 3 0 -9 15 -17 13 -58 -3 -58 -5 0 -11 5 -14 12 -2 7 1 9 9 4 9 -6 9
-3 1 14 -7 11 -17 21 -24 21 -8 0 -8 -3 2 -9 17 -11 6 -31 -17 -31 -10 0 -13
3 -6 8 13 9 12 91 -1 89 -5 -1 -13 -6 -16 -11 -4 -5 -7 9 -7 30 0 21 5 42 11
46 9 6 9 8 0 8 -7 0 -13 7 -13 15 0 8 4 15 8 15 5 0 9 7 9 15 0 8 -4 12 -9 9
-5 -3 -6 7 -2 23 9 35 14 42 14 17 0 -15 4 -12 15 10 19 35 19 37 0 30 -8 -4
-15 -1 -15 5 0 6 5 11 11 11 6 0 8 8 5 18 -5 14 -4 14 9 -2 8 -11 15 -24 15
-28z m-5552 -106 c3 -22 3 -22 -150 -23 -152 -1 -359 -11 -388 -20 -20 -6 -25
34 -7 52 11 12 65 14 278 14 l264 0 3 -23z m-138 -337 c0 -1 7 -38 15 -81 24
-125 1 -243 -47 -244 -5 0 -9 28 -9 63 -1 34 -3 54 -6 44 -3 -13 -11 -17 -24
-14 -14 4 -21 -2 -26 -21 -7 -26 -7 -26 -19 13 -15 48 -18 185 -5 185 6 0 12
-4 16 -10 3 -5 12 -7 20 -3 10 3 15 -1 15 -13 0 -11 5 -26 11 -34 8 -11 9 -1
5 38 -6 57 4 77 36 79 10 1 18 0 18 -2z m257 -36 c7 -19 12 -27 12 -18 1 18
41 33 53 21 19 -19 35 -116 30 -180 -4 -62 -7 -69 -33 -85 l-29 -16 0 44 c0
60 -18 67 -22 8 l-3 -48 -12 39 c-7 21 -18 46 -26 55 -21 23 -28 106 -10 123
12 12 11 20 -2 51 -19 47 -19 47 8 44 15 -3 26 -15 34 -38z m298 31 c14 22 24
7 45 -62 12 -40 24 -77 25 -83 2 -5 4 7 4 28 1 37 6 43 27 29 38 -25 48 -136
14 -165 -28 -24 -30 -22 -30 22 0 78 -17 49 -19 -32 -2 -97 -10 -149 -22 -141
-5 3 -18 0 -29 -6 -19 -10 -20 -8 -20 82 0 51 -7 147 -15 213 -8 65 -15 121
-15 123 0 3 6 -1 14 -7 10 -8 16 -9 21 -1z m263 3 c0 -5 2 -15 5 -23 4 -8 13
-33 21 -55 14 -37 15 -38 15 -11 1 22 4 26 14 17 9 -7 17 -7 24 0 7 7 15 0 26
-23 l17 -33 0 44 c0 35 3 41 13 32 8 -6 17 -8 20 -4 4 3 7 0 7 -7 0 -7 3 -10
7 -6 4 3 13 -4 20 -16 l12 -23 1 26 c0 19 7 28 22 32 28 8 36 2 52 -36 l14
-32 1 37 c1 24 9 46 25 63 l24 25 6 -22 c26 -94 36 -169 30 -230 -4 -38 -11
-68 -15 -68 -5 0 -9 9 -9 21 0 15 -5 19 -19 14 -16 -5 -20 1 -27 37 -4 24 -9
35 -12 26 -4 -19 -22 -25 -22 -8 0 6 -8 5 -20 -2 -17 -11 -22 -10 -30 2 -8 12
-11 11 -16 -7 -4 -14 -14 -23 -26 -23 -10 0 -16 -4 -13 -10 3 -5 0 -10 -8 -10
-10 0 -18 17 -25 48 -7 33 -10 39 -11 19 -1 -20 -8 -30 -27 -37 -37 -15 -42
-13 -47 18 -3 18 -5 12 -6 -18 0 -25 -4 -61 -7 -81 -5 -32 -9 -36 -35 -35 -28
1 -29 3 -29 47 0 66 -10 109 -26 109 -8 0 -14 5 -14 11 0 8 -5 7 -15 -1 -21
-17 -26 -9 -32 45 -5 42 -4 45 18 46 13 1 30 0 38 -1 11 -1 13 9 8 49 -5 45
-4 49 13 46 11 -2 22 0 25 6 7 11 16 12 13 2z m-667 -31 c31 -26 49 -103 42
-179 -5 -50 -10 -65 -29 -78 -25 -16 -23 -19 -40 77 -4 26 -10 35 -20 31 -8
-3 -14 -11 -14 -18 0 -18 -32 -28 -42 -13 -4 7 -8 41 -8 75 0 56 2 62 21 60
13 -1 26 -13 34 -34 8 -18 16 -33 17 -33 2 0 2 29 0 65 -5 70 1 77 39 47z
m3814 -160 c45 -33 50 -40 47 -71 -3 -25 4 -45 26 -75 63 -88 80 -146 42 -146
-23 0 -27 -25 -6 -37 11 -6 16 -38 20 -120 3 -62 3 -113 -1 -113 -5 0 -9 -42
-9 -93 -1 -50 -4 -122 -6 -159 -2 -38 0 -68 4 -68 4 0 8 -31 8 -70 0 -38 4
-70 9 -70 4 0 11 -28 15 -61 3 -34 10 -67 16 -74 5 -6 7 -15 4 -18 -3 -3 1
-16 10 -29 21 -29 24 -272 4 -266 -8 3 -17 48 -25 124 -7 71 -26 171 -47 247
-42 153 -64 292 -72 458 -4 83 -13 152 -29 209 -49 178 -56 219 -54 297 2 51
-3 94 -14 126 -20 58 -10 60 58 9z m550 -80 c1 -26 29 -49 40 -32 10 17 34 11
45 -11 8 -15 8 -24 0 -34 -7 -9 -8 -26 -1 -54 5 -23 7 -50 4 -60 -3 -10 0 -22
6 -25 6 -4 11 -16 11 -27 0 -32 31 -122 52 -148 10 -13 21 -41 24 -63 4 -21
11 -41 15 -44 5 -3 9 -14 9 -25 0 -26 16 -24 23 3 12 42 19 9 23 -104 2 -62
12 -159 23 -215 11 -64 15 -105 9 -111 -6 -6 -4 -21 7 -41 9 -17 13 -36 10
-41 -3 -5 3 -44 14 -87 13 -55 19 -116 20 -207 2 -147 -5 -196 -26 -196 -11 0
-13 7 -8 32 20 90 -15 327 -89 603 -13 50 -27 133 -31 185 -7 110 -33 207 -79
300 -18 36 -52 122 -75 192 -23 70 -53 147 -66 170 -18 32 -21 45 -13 56 18
21 53 11 53 -16z m427 -144 c3 -56 16 -103 52 -198 26 -69 61 -172 78 -230 29
-99 31 -117 36 -313 3 -160 0 -235 -12 -321 -20 -137 -23 -333 -6 -409 7 -30
10 -62 7 -71 -8 -21 -34 -10 -44 19 -4 12 -28 38 -52 56 -29 23 -49 48 -58 74
-12 36 -12 43 6 75 11 19 24 68 30 109 5 41 15 77 21 81 14 9 5 85 -16 145 -8
22 -16 76 -19 120 -3 44 -7 101 -9 128 -3 28 -1 45 5 42 5 -4 9 -14 9 -23 1
-21 23 -52 39 -52 6 0 11 -4 11 -8 0 -5 7 -17 16 -28 14 -18 15 -16 10 26 -6
61 -12 83 -30 122 -9 18 -22 66 -31 106 -8 40 -20 82 -25 92 -6 10 -10 28 -10
40 0 16 -4 20 -16 16 -10 -4 -13 -2 -8 6 4 6 1 16 -7 22 -38 31 -78 122 -84
193 -5 57 -21 83 -51 83 -10 0 -60 99 -52 104 2 1 23 10 48 19 65 24 80 22 80
-10 1 -16 7 -41 14 -58 18 -43 26 -11 11 47 -13 52 -6 68 31 68 20 0 22 -6 26
-72z m-569 26 c13 -4 13 -11 1 -51 -12 -39 -12 -56 2 -122 9 -41 18 -79 20
-83 8 -12 45 -203 60 -308 15 -110 12 -180 -12 -264 -17 -60 -18 -225 -3 -436
12 -172 15 -162 -70 -201 -43 -19 -46 -19 -77 -3 -34 19 -44 60 -22 101 10 21
12 21 24 5 12 -16 13 -15 14 5 0 12 11 35 25 51 27 32 32 76 15 147 -5 21 -12
89 -16 151 l-7 111 31 6 c42 9 46 32 21 129 -28 110 -39 163 -44 223 -3 28
-15 98 -26 155 -39 191 -42 247 -19 295 11 23 20 51 20 62 0 19 10 26 42 32 3
0 13 -2 21 -5z m-3817 -412 c0 -45 -2 -86 -5 -91 -4 -4 -31 -11 -62 -14 l-57
-7 29 78 c48 125 47 124 72 120 21 -3 22 -8 23 -86z m781 -336 c-4 -11 3 -16
26 -18 32 -3 32 -4 38 -68 3 -36 3 -71 1 -77 -7 -20 -28 -15 -40 10 -6 12 -11
16 -11 8 -1 -15 -27 10 -73 71 l-27 36 22 15 c21 15 21 16 2 17 -32 1 4 20 39
20 20 0 27 -4 23 -14z m-803 -43 c7 -16 17 -42 20 -59 l7 -31 -128 -7 c-70 -3
-210 -9 -309 -12 -172 -6 -182 -6 -201 13 -28 28 -65 37 -60 15 2 -9 8 -16 15
-15 19 4 27 -66 9 -84 -17 -18 -41 -8 -33 14 4 10 1 13 -13 8 -14 -4 -27 8
-59 54 -38 56 -40 60 -21 66 15 5 17 10 10 19 -14 17 -4 26 32 26 22 0 28 -4
23 -15 -10 -26 41 -31 62 -6 16 20 29 22 242 30 406 14 387 15 404 -16z m4671
-994 c4 -5 4 -21 1 -34 -5 -18 -17 -27 -49 -35 -23 -6 -62 -17 -87 -25 -73
-22 -151 -37 -220 -41 l-65 -4 130 46 c72 24 158 54 192 65 34 11 65 24 68 29
8 13 22 13 30 -1z m-2607 -68 c12 -6 38 -12 57 -13 19 -1 35 -5 35 -10 0 -4 8
-8 18 -8 14 0 15 2 2 10 -12 8 -11 10 7 10 22 0 33 -16 25 -37 -2 -7 -11 -13
-19 -13 -8 0 -11 5 -8 10 4 6 -5 10 -19 10 -14 0 -26 -4 -26 -10 0 -5 -7 -10
-15 -10 -9 0 -12 6 -8 17 5 13 3 15 -13 8 -10 -5 -29 -8 -41 -7 -13 1 -41 3
-62 4 -33 2 -38 5 -28 17 12 15 13 15 -40 -6 -11 -4 -14 -3 -9 5 4 7 3 12 -2
12 -5 0 -25 2 -43 5 l-34 5 35 -14 c29 -11 32 -15 17 -21 -10 -4 -24 -2 -33 6
-8 7 -32 16 -52 20 l-37 7 37 1 c20 0 40 6 44 12 9 15 181 7 212 -10z"/>
<path d="M3465 4488 c-3 -7 -6 -35 -7 -63 l-3 -50 38 2 c25 2 37 -2 37 -11 0
-20 -10 -25 -34 -17 -43 16 -62 -12 -28 -42 19 -17 68 -22 88 -9 16 11 34 48
34 72 0 11 -11 32 -25 46 -29 29 -31 34 -9 34 10 0 14 7 12 23 -3 19 -10 22
-51 25 -32 2 -49 -1 -52 -10z"/>
<path d="M4307 4477 c-26 -18 -27 -70 -3 -75 11 -2 25 4 33 14 17 23 28 11 13
-15 -6 -13 -16 -19 -23 -15 -7 4 -9 3 -4 -1 4 -5 -4 -21 -19 -36 -43 -44 -30
-63 44 -67 56 -3 64 -1 69 17 5 19 5 19 24 0 27 -27 83 -25 103 3 33 47 10
116 -40 119 -11 1 -6 4 11 8 23 5 31 12 33 34 3 26 2 27 -47 27 -59 0 -71 -14
-71 -84 0 -37 3 -46 18 -46 12 0 10 -4 -8 -13 -14 -7 -33 -11 -42 -9 -16 4
-16 7 3 45 20 38 20 42 5 74 -13 28 -21 33 -49 33 -18 0 -41 -6 -50 -13z"/>
<path d="M730 6742 c0 -10 -5 -23 -12 -30 -7 -7 -8 -12 -3 -12 5 0 0 -7 -11
-16 -18 -15 -18 -15 4 -9 22 6 23 5 12 -15 -6 -12 -18 -19 -25 -16 -8 3 -17 1
-20 -4 -3 -5 3 -10 12 -13 14 -3 13 -6 -9 -15 -29 -12 -45 -50 -34 -79 5 -11
-1 -23 -15 -34 -21 -16 -21 -17 -5 -49 19 -38 20 -43 6 -35 -5 3 -10 2 -10 -4
0 -12 16 -23 58 -37 17 -7 32 -8 32 -3 0 5 -4 9 -9 9 -15 0 -20 39 -8 78 15
51 14 64 -2 84 -12 15 -12 18 2 24 8 3 18 17 22 31 3 14 16 34 28 44 20 18 20
18 2 12 -16 -6 -18 -4 -9 8 13 15 14 99 2 99 -5 0 -8 -8 -8 -18z"/>
<path d="M3405 6210 c-3 -6 -3 -19 0 -30 4 -11 2 -20 -4 -20 -6 0 -11 -6 -11
-14 0 -21 -19 -30 -35 -16 -10 8 -15 8 -20 -1 -4 -6 -1 -15 6 -20 14 -9 12
-10 -30 -14 -13 -1 -27 -8 -31 -15 -6 -10 -8 -10 -12 0 -3 10 -9 10 -25 1 -12
-6 -29 -11 -38 -11 -23 0 -13 25 11 26 10 1 33 3 49 4 20 2 24 4 12 7 -14 3
-17 11 -13 26 3 11 0 28 -7 36 -9 11 -9 15 1 18 24 9 12 23 -18 21 -30 -2 -43
-18 -14 -18 12 0 14 -9 12 -37 -3 -36 -5 -38 -38 -39 -19 0 -44 3 -55 7 -17 6
-20 2 -20 -21 0 -16 3 -32 8 -36 4 -4 7 2 7 14 0 12 5 22 11 22 7 0 9 -9 5
-22 -3 -13 -6 -32 -7 -43 0 -11 -3 -14 -6 -8 -7 19 -43 -3 -43 -27 0 -28 14
-32 38 -10 25 24 38 25 45 6 3 -8 -2 -16 -15 -19 -11 -3 -17 -10 -13 -16 4 -7
-5 -11 -25 -11 -21 0 -33 6 -38 19 -7 19 -8 18 -19 -5 -9 -20 -8 -24 3 -24 8
0 14 -6 13 -12 -3 -27 1 -48 10 -48 6 0 12 15 14 33 4 31 4 31 5 -5 1 -21 -2
-38 -8 -38 -16 0 -11 -40 6 -47 23 -9 37 12 40 57 2 48 14 67 14 23 0 -18 6
-33 14 -36 15 -6 16 21 1 55 -4 9 -4 22 0 28 9 14 27 13 20 -2 -3 -7 0 -4 7 6
7 10 21 26 31 35 23 21 22 31 -4 31 -17 0 -19 3 -10 14 9 11 9 15 -1 18 -8 3
-6 7 5 11 11 4 17 1 17 -8 0 -7 7 -21 16 -30 9 -8 13 -23 10 -31 -7 -18 23
-115 39 -126 7 -5 6 -14 -1 -26 -9 -14 -8 -27 7 -60 11 -23 23 -42 27 -42 4 0
16 13 26 28 20 27 20 27 0 10 -29 -25 -34 -23 -34 20 0 20 -1 60 -3 87 -1 28
3 53 8 57 6 4 2 8 -7 8 -26 0 -22 33 7 63 30 30 17 47 -21 26 -19 -9 -27 -10
-36 -1 -6 6 -8 15 -4 19 4 4 11 1 16 -7 9 -13 14 -7 11 12 -1 10 42 6 56 -4
13 -10 37 24 26 36 -4 4 6 18 22 31 21 17 25 24 14 25 -16 0 -20 33 -6 46 10
10 9 24 -2 24 -6 0 -13 -5 -16 -10z"/>
<path d="M2919 6066 c8 -9 11 -20 7 -24 -4 -4 -12 1 -17 11 -14 25 -29 21 -29
-8 0 -20 -5 -25 -25 -25 -25 0 -31 -13 -19 -44 5 -13 9 -12 25 7 l20 22 -3
-25 c-2 -14 -7 -28 -13 -32 -6 -5 -6 -8 2 -8 7 0 17 8 22 18 9 14 10 14 11 2
0 -9 -6 -22 -12 -28 -17 -17 -17 -60 0 -67 7 -3 24 -2 37 1 18 4 24 14 28 47
3 23 1 44 -4 48 -5 3 -7 12 -4 20 9 23 -9 92 -25 97 -13 5 -13 3 -1 -12z"/>
<path d="M881 5752 c-5 -10 -7 -29 -4 -42 4 -16 3 -21 -5 -16 -7 4 -12 2 -12
-4 0 -7 9 -14 20 -17 11 -3 20 -11 20 -18 0 -8 15 -13 41 -13 23 -1 44 -3 47
-6 7 -8 -147 -7 -175 0 -13 4 -23 14 -24 23 0 11 -3 10 -9 -6 -8 -19 -15 -21
-62 -18 -29 2 -61 4 -71 4 -14 1 -16 5 -7 20 12 24 13 31 1 31 -5 0 -12 -11
-15 -25 -7 -27 28 -26 -313 -10 -75 3 -123 2 -123 -4 0 -12 66 -20 238 -27 79
-3 153 -8 165 -11 12 -2 27 -5 33 -5 7 -1 12 -20 12 -43 l1 -42 -59 -1 c-33 0
-60 2 -60 6 0 4 -14 22 -31 40 -29 31 -34 32 -107 33 -42 0 -103 4 -135 8 -32
4 -60 4 -63 0 -8 -14 13 -19 103 -25 87 -7 90 -7 85 -30 -4 -23 -6 -23 -93
-18 -61 4 -89 2 -89 -5 0 -6 7 -11 15 -11 23 0 18 -15 -10 -26 -19 -7 -23 -12
-15 -24 7 -11 12 -12 18 -4 5 9 11 8 20 -2 11 -12 9 -14 -8 -14 -11 0 -20 -4
-20 -10 0 -5 5 -10 10 -10 6 0 10 -4 10 -10 0 -5 -7 -10 -16 -10 -13 0 -14 -3
-4 -15 13 -16 6 -48 -16 -70 -14 -13 -14 -15 0 -15 9 0 16 -3 16 -7 -1 -21
-20 -33 -48 -31 -26 2 -32 7 -32 25 0 13 6 23 13 23 9 0 9 2 0 8 -8 5 -11 52
-12 149 0 126 2 142 17 146 16 4 16 5 0 6 -19 1 -24 26 -8 36 6 4 8 11 4 16
-3 5 -1 16 5 23 9 10 8 15 -3 19 -9 4 -16 -4 -20 -24 -5 -24 -10 -29 -36 -29
-21 0 -30 5 -30 17 0 14 -2 14 -20 -2 -24 -22 -26 -55 -4 -55 8 0 12 -5 9 -10
-7 -11 18 -40 34 -40 6 0 11 -7 11 -15 0 -9 -9 -15 -25 -15 -14 0 -25 6 -25
13 0 25 -20 -18 -20 -45 0 -30 9 -35 27 -17 16 16 43 3 43 -21 0 -16 -6 -20
-35 -20 -24 0 -35 -5 -35 -15 0 -8 9 -15 20 -15 11 0 23 -7 27 -16 4 -11 8
-12 13 -4 5 7 9 2 12 -14 5 -24 3 -26 -33 -26 -37 0 -53 -14 -26 -23 9 -3 9
-8 1 -18 -20 -27 -14 -55 14 -66 l27 -10 -27 -8 c-22 -6 -28 -13 -28 -36 0
-16 5 -29 13 -29 8 0 7 -4 -3 -10 -12 -8 -13 -11 -1 -19 9 -6 10 -11 2 -15 -7
-5 -11 -77 -11 -227 l0 -219 23 -1 c59 -4 169 -8 233 -10 l71 -2 -15 -26 c-10
-19 -13 -38 -8 -65 6 -31 14 -40 44 -53 76 -32 151 20 138 96 -5 34 -3 39 17
45 35 9 325 7 331 -3 9 -13 86 0 109 18 11 9 34 27 51 41 73 59 116 84 129 71
9 -9 15 -6 29 11 20 27 38 16 20 -12 -17 -27 -15 -30 11 -30 15 0 29 9 37 25
11 21 11 27 -3 43 -10 10 -15 21 -13 23 2 2 64 1 138 -2 159 -7 182 -3 186 35
2 15 -1 33 -7 40 -6 7 -8 16 -4 19 7 7 43 -31 43 -45 0 -5 9 -7 20 -3 15 5 18
3 14 -9 -3 -9 -1 -16 5 -16 17 0 13 22 -9 50 -11 14 -20 35 -20 48 0 18 -9 27
-40 39 -44 17 -44 25 0 47 17 8 28 11 25 6 -3 -5 0 -12 6 -16 13 -8 29 14 23
31 -3 6 11 15 33 21 33 8 38 13 38 39 0 27 -3 30 -27 28 -38 -2 -35 5 7 23 19
8 35 20 35 27 0 8 -4 7 -11 -3 -7 -11 -12 -11 -15 -3 -4 8 -21 6 -61 -8 -61
-21 -79 -15 -68 20 5 17 14 21 51 21 58 0 57 17 -2 26 -41 6 -45 9 -42 33 3
24 6 26 56 24 80 -4 66 20 -18 29 -19 2 -26 10 -28 31 -3 21 1 27 17 27 11 0
23 -5 26 -10 6 -9 47 -4 69 8 14 8 -16 20 -66 27 -38 5 -48 11 -48 25 0 25 17
34 24 13 4 -15 5 -15 4 2 -1 58 -1 58 50 52 26 -3 54 -2 62 3 18 11 11 14 -82
31 -52 10 -65 16 -60 27 4 11 1 14 -11 9 -8 -3 -18 -1 -21 6 -2 7 -5 4 -5 -6
-1 -15 -8 -17 -48 -11 -109 13 -159 22 -173 28 -16 7 -59 -18 -49 -28 3 -4 23
-7 43 -8 20 -1 36 -2 36 -4 0 -1 -16 -12 -36 -25 -20 -12 -48 -33 -63 -47 -25
-23 -25 -24 -3 -18 16 6 22 3 22 -8 0 -11 10 -16 32 -16 30 0 30 -1 14 -19
-10 -11 -29 -22 -43 -26 -14 -3 -23 -9 -19 -12 3 -3 2 -11 -3 -17 -7 -8 2 -10
32 -7 l42 3 -19 -21 c-11 -11 -25 -21 -33 -21 -7 0 -13 -8 -14 -17 -1 -10 -2
-27 -3 -38 -1 -14 -9 -21 -30 -23 -27 -3 -29 -2 -15 14 12 16 12 17 -3 11 -27
-10 -24 44 3 61 12 7 18 16 15 19 -3 3 -12 0 -21 -7 -13 -11 -15 -9 -15 14 0
14 6 26 13 26 9 0 9 2 -1 9 -8 4 -13 19 -12 32 1 13 2 57 1 97 l-1 72 -32 1
c-18 0 -42 4 -53 8 -11 5 -25 4 -32 -1 -13 -10 -17 2 -16 40 1 15 -24 16 -29
1 -2 -6 -19 -13 -37 -15 l-33 -4 5 51 c5 49 5 50 -14 33 -20 -18 -27 -6 -7 14
6 6 9 14 6 18 -4 3 -11 -3 -17 -14z m-107 -153 c5 -5 2 -19 -8 -33 -9 -15 -12
-26 -7 -26 5 0 16 16 25 35 11 23 24 35 37 35 12 0 17 -4 13 -11 -4 -8 0 -9
15 -4 12 4 21 2 21 -4 0 -6 7 -11 16 -11 11 0 15 -6 11 -20 -3 -11 -1 -18 4
-14 5 3 9 16 9 30 0 30 13 31 29 2 l12 -23 -5 22 c-4 21 0 23 35 21 38 -1 52
-12 27 -20 -7 -3 -6 -7 5 -11 12 -5 17 -1 17 13 0 17 7 20 45 20 l45 0 -2 -45
c-3 -54 -6 -56 -118 -49 -47 3 -98 5 -115 5 -16 0 -74 2 -127 6 l-98 5 0 42
c0 24 2 45 5 48 8 8 98 -3 109 -13z m-134 -206 c0 -7 -7 -13 -15 -13 -8 0 -15
-4 -15 -10 0 -5 7 -7 15 -4 8 4 15 1 15 -5 0 -7 -42 -11 -130 -11 -113 0 -130
2 -130 16 0 12 6 15 23 11 20 -5 20 -5 5 7 -10 7 -15 16 -11 19 3 4 0 7 -8 8
-10 0 -9 3 3 7 9 4 69 3 133 -2 85 -7 115 -13 115 -23z"/>
<path d="M2906 5741 c-4 -5 0 -12 6 -14 19 -8 -12 -28 -34 -23 -22 5 -34 -12
-20 -26 8 -8 16 -7 28 3 14 12 16 11 13 -6 -4 -20 -49 -35 -49 -16 0 12 -28
41 -41 41 -12 0 -12 -47 0 -55 5 -3 11 5 14 17 3 20 4 21 11 5 10 -20 -12 -80
-25 -71 -5 3 -6 10 -3 16 4 6 -5 3 -19 -8 -15 -10 -24 -25 -22 -32 3 -8 5 -18
5 -23 0 -5 5 -9 11 -9 6 0 9 6 6 14 -3 8 5 18 19 25 35 16 49 14 34 -4 -7 -8
-20 -15 -28 -15 -28 0 2 -20 36 -25 22 -2 32 1 32 10 0 7 -5 15 -12 17 -8 3
-8 9 -1 22 9 16 11 16 22 2 8 -9 10 -16 6 -16 -4 0 -2 -7 5 -15 7 -9 15 -33
17 -55 2 -22 11 -52 19 -67 15 -27 15 -26 9 25 -7 52 0 63 23 40 7 -7 12 -10
13 -7 0 2 3 27 6 54 6 59 9 64 27 40 12 -17 14 -16 24 13 9 27 8 32 -4 32 -9
0 -12 -5 -8 -12 4 -7 4 -10 -1 -6 -4 4 -13 18 -20 30 -6 13 -17 22 -23 21 -6
-2 -14 7 -17 18 -4 12 -12 18 -21 15 -8 -3 -14 -1 -14 4 0 6 5 10 10 10 6 0 5
8 -2 20 -14 22 -24 25 -32 11z"/>
<path d="M2879 5213 c-1 -5 -2 -15 -3 -23 0 -9 -11 -15 -26 -15 -15 0 -26 -7
-28 -18 -4 -21 27 -35 38 -16 5 7 10 11 12 9 27 -43 28 -49 2 -69 -28 -22 -49
-19 -40 5 9 22 -22 16 -34 -6 -8 -15 -17 -19 -31 -15 -10 4 -19 2 -19 -4 0 -5
-8 -12 -17 -14 -10 -3 -3 -5 16 -6 23 -1 40 6 53 22 19 21 20 21 16 2 -4 -24
-22 -45 -40 -45 -7 -1 2 -7 20 -15 22 -10 31 -19 26 -27 -4 -7 3 -3 15 9 25
26 25 27 5 47 -13 14 -13 16 -1 16 8 0 18 -8 21 -17 3 -10 12 -28 20 -40 l13
-23 13 28 c11 22 14 24 17 10 3 -10 11 -18 20 -18 12 0 13 3 4 14 -9 11 -9 15
1 19 10 4 10 7 1 14 -7 5 -9 14 -3 23 6 11 10 7 16 -16 4 -16 14 -34 23 -41
18 -14 6 -44 -20 -49 -7 -1 -25 -7 -39 -12 -18 -8 -20 -11 -7 -11 9 -1 17 -9
18 -18 0 -14 2 -13 9 4 6 14 15 21 24 17 9 -4 20 5 30 25 13 25 14 32 2 43 -8
8 -11 26 -8 46 2 19 0 32 -6 32 -6 0 -12 23 -14 52 -2 28 -8 53 -14 55 -6 2
-8 -10 -6 -31 2 -20 -1 -37 -9 -41 -9 -6 -10 -1 -6 17 5 18 -1 32 -23 56 -29
32 -39 38 -41 25z"/>
<path d="M1923 5022 c22 -24 24 -32 18 -79 -8 -59 -14 -69 -33 -57 -30 19 -89
11 -69 -9 6 -6 11 -24 11 -39 0 -35 5 -35 35 0 l24 27 -6 -25 c-3 -14 -11 -29
-18 -35 -20 -17 -25 -53 -6 -51 9 1 15 -6 15 -16 -1 -10 2 -18 7 -18 12 0 11
17 -1 41 -12 21 -2 47 32 83 10 11 17 25 14 32 -2 6 0 17 5 25 6 10 9 10 9 2
0 -7 4 -13 9 -13 6 0 9 9 8 20 -1 11 -7 20 -14 20 -7 0 -13 5 -13 10 0 6 7 10
16 10 8 0 13 4 9 9 -3 5 -1 12 4 16 11 6 33 -29 24 -39 -3 -3 1 -6 9 -6 11 0
14 6 11 20 -3 12 0 20 6 20 8 0 10 12 5 38 -4 20 -8 38 -9 40 -2 2 -22 -6 -44
-16 -30 -15 -41 -17 -41 -7 0 7 -10 15 -21 18 -20 6 -20 4 4 -21z"/>
<path d="M2097 4960 c-12 -37 -14 -60 -6 -60 5 0 9 -5 9 -11 0 -5 -5 -7 -11
-4 -6 4 -9 1 -8 -6 6 -29 -12 -61 -32 -56 -11 3 -23 -2 -30 -11 -7 -12 -12
-14 -15 -4 -8 17 -24 15 -24 -3 0 -8 9 -15 20 -15 11 0 20 -7 20 -15 0 -8 5
-15 10 -15 6 0 10 7 10 16 0 9 10 24 23 35 27 22 45 25 23 3 -9 -8 -16 -20
-16 -25 0 -13 21 0 38 23 7 10 21 18 30 18 15 0 15 2 2 10 -8 5 -13 10 -10 11
3 0 13 2 22 4 31 6 17 -38 -17 -54 -19 -8 -25 -15 -16 -18 7 -3 16 -1 20 4 3
5 16 12 29 16 24 6 24 6 5 -39 -2 -6 5 -14 16 -17 22 -5 30 8 9 15 -9 3 -8 12
5 31 9 14 17 33 17 42 0 8 4 15 8 15 5 0 17 7 28 16 19 15 18 15 -3 11 -18 -4
-23 -1 -23 14 0 10 -4 19 -10 19 -5 0 -10 -7 -10 -15 0 -8 -6 -15 -14 -15 -8
0 -23 -3 -33 -7 -16 -6 -16 -5 -4 10 12 15 12 17 -1 12 -11 -4 -17 1 -21 17
-4 13 -13 32 -21 43 -12 16 -15 17 -19 5z"/>
<path d="M2310 4802 c0 -13 4 -21 9 -18 5 3 11 -3 14 -13 4 -15 -2 -20 -24
-23 -16 -3 -30 1 -33 7 -2 7 -16 15 -30 17 -20 4 -26 1 -28 -16 -2 -13 -12
-22 -25 -24 -23 -3 -33 -22 -12 -22 6 0 8 -9 4 -20 -5 -16 -3 -19 12 -13 16 6
16 5 4 -10 -16 -20 -3 -22 22 -3 18 14 24 32 7 21 -12 -8 -13 5 -1 23 7 11 10
10 15 -3 3 -9 6 -25 6 -36 0 -17 3 -18 21 -7 14 9 23 9 25 3 3 -6 20 -9 38 -7
26 3 35 9 39 28 2 13 0 24 -4 24 -5 0 -6 7 -3 15 5 11 2 13 -11 9 -15 -6 -16
-4 -7 13 9 15 6 25 -13 49 -24 28 -24 28 -25 6z"/>
<path d="M2514 4468 c-60 -28 -57 -176 3 -199 37 -14 52 -11 78 16 21 20 25
34 25 83 0 43 -5 66 -17 80 -22 25 -61 33 -89 20z"/>
</g>
</svg>
