<?xml version="1.0"?>
<svg xmlns="http://www.w3.org/2000/svg" xmlns:xlink="http://www.w3.org/1999/xlink" xmlns:svgjs="http://svgjs.com/svgjs" version="1.1" width="512" height="512" x="0" y="0" viewBox="0 0 161.369 161.369" style="enable-background:new 0 0 512 512" xml:space="preserve" class=""><g>
<g xmlns="http://www.w3.org/2000/svg">
	<g>
		<path d="M85.783,79.509c2.137-1.574,3.543-4.083,3.543-6.937c0-3.036-1.583-5.696-3.959-7.24h-0.454L133.916,0H98.895    L80.684,24.285L62.473,0.006h-35.02l49.002,65.333H76c-2.374,1.543-3.957,4.203-3.957,7.24c0,2.854,1.407,5.362,3.541,6.941    c-20.287,2.517-36.006,19.781-36.006,40.743c0,22.71,18.403,41.106,41.105,41.106c22.705,0,41.106-18.407,41.106-41.106    C121.79,99.294,106.074,82.036,85.783,79.509z M78.807,68.471h3.754c1.549,0.72,2.656,2.276,2.656,4.096    c0,2.5-2.034,4.534-4.533,4.534c-2.496,0-4.532-2.033-4.532-4.534C76.151,70.748,77.257,69.196,78.807,68.471z M67.173,154.595    l-0.004,0.077c-12.938-5.089-22.286-17.227-23.344-31.693c0.792,0.562,1.882,1.553,2.893,2.631    c1.62,10.184,7.749,19.288,16.832,24.516l1.539-2.675c-6.738-3.87-11.657-10.119-14.073-17.304c1.26,1.009,2.71,1.811,4.319,1.871    c3.434,0.142,5.374-0.498,6.058,0.285c0.685,0.776,0.553,7.146,2.51,10.231c1.982,3.064,2.858,4.58,2.94,6.878    C66.949,151.705,67.537,152.385,67.173,154.595z M89.68,156.105c0.071-0.586,0.197-1.265,0.525-2.206    c1.138-3.299,1.696-6.047,4.678-9.077c2.983-3.037,4.364-10.463,5.412-11.566c1.053-1.097,2.748-1.185,5.508-1.512    c1.649-0.187,3.466-1.565,5.075-3.152c-2.176,7.803-7.315,14.633-14.487,18.793l1.546,2.668    c9.473-5.505,15.696-15.233,16.915-25.98c1.106-1.172,1.958-1.746,2.741-2.277C116.91,138.442,105.275,152.209,89.68,156.105z     M117.028,113.462c-0.831-2.249-1.859-4.616-2.928-5.844c-2.153-2.469-3.614-4.679-4.492-6.561    c-0.873-1.872-3.852-2.245-5.734-1.604c-1.882,0.643-3.161,0.689-3.939,1.11c-0.789,0.406-0.789,0.542-0.789,0.542    s-0.732,0.138-0.683,1.885c0.038,1.743,0.28,2.707,0.28,2.707s-0.416,1.422,0.639,1.242c1.056-0.191,1.463-0.739,1.463-0.739    s0.961,0.361,1.984-0.137c1.466,0.229,2.205-0.563,2.418-1.467c0.98-0.186,1.379-0.519,1.379-0.519s0.597,1.422,1.151,4.366    c0.551,2.938,0.416,4.137,1.284,6.981c0.864,2.835,0.553,3.202,0.553,3.202l-1.192,0.093c-0.335-0.05-1.796-2.151-4.356-1.335    c-2.571,0.831-3.169,3.031-3.763,3.491c-0.598,0.459-1.882-0.639-4.044-0.264c-2.146,0.358-4.407,1.227-5.639,2.146    c-1.247,0.92-1.789,1.242-1.98,1.242c-0.174,0-1.751-0.597-2.241-1.975c-0.505-1.368-0.547-4.641-0.505-4.948    c0.043-0.327,1.192-0.142,1.554-1.285c0.371-1.154,0.416-2.753,0.733-3.628c0.317-0.864-1.188-1.013-1.188-1.013    s0.232-2.566,0.325-3.343c0.094-0.775-1.288-2.89-2.245-3.442c-0.225-0.793-2.351-1.886-3.166-1.932l-1.469-0.263    c0,0-1.237-0.606-2.342,0.132c-1.192,0.36-1.827,1.378-1.827,1.378s-0.974,0.647-1.429,1.374    c-0.913,0.543-1.475,1.057-1.284,2.295c0.187,1.241-0.185,3.577,0.787,4.584c-0.544,0.099-1.284,0.185-0.825,1.521    c0.46,1.324,0.689,2.058,0.638,2.66c-0.049,0.579,0.69,1.102,0.786,0.962c0.089-0.142,0.089,1.823,1.007,2.605    c0.131,1.745,0.416,3.217,0,3.907c-0.413,0.7-0.868,0.776-1.837,0.963c-0.965,0.186-2.791-0.646-3.752-1.795    c-0.966-1.148-3.583-2.697-5.598-2.012c-2.026,0.682-3.079,1.142-3.532,0.73c-0.466-0.416-1.242-3.528-4.23-3.392    c-2.974,0.142-3.898,1.105-4.394,1.051c-0.515-0.038,0.131-1.877,0-4.903c-0.14-3.025-0.37-3.25,0.131-5.411    c0.514-2.151,1.102-3.673,1.102-3.673s0.46,0.504,1.193,0.23c0.551,0.646,1.968,0.558,1.968,0.558l0.282,0.229    c0,0,0.278,1.971,1.422,1.697c1.148-0.284,0.369-2.44,0.369-2.44s0.78-3.021,0.273-4.033c-0.502-1.007-3.122-2.248-4.639-2.155    c-1.51,0.092-3.803,1.187-4.214,1.69c-0.413,0.515-0.273,1.384-0.868,2.2c-0.604,0.826-1.198,3.086-3.08,5.235    c-0.495,0.574-1.021,1.357-1.513,2.239c4.252-15.728,18.581-27.317,35.665-27.317C98.785,83.272,113.833,96.285,117.028,113.462z" fill="#fcaa22" data-original="#000000" style=""/>
	</g>
</g>
<g xmlns="http://www.w3.org/2000/svg">
</g>
<g xmlns="http://www.w3.org/2000/svg">
</g>
<g xmlns="http://www.w3.org/2000/svg">
</g>
<g xmlns="http://www.w3.org/2000/svg">
</g>
<g xmlns="http://www.w3.org/2000/svg">
</g>
<g xmlns="http://www.w3.org/2000/svg">
</g>
<g xmlns="http://www.w3.org/2000/svg">
</g>
<g xmlns="http://www.w3.org/2000/svg">
</g>
<g xmlns="http://www.w3.org/2000/svg">
</g>
<g xmlns="http://www.w3.org/2000/svg">
</g>
<g xmlns="http://www.w3.org/2000/svg">
</g>
<g xmlns="http://www.w3.org/2000/svg">
</g>
<g xmlns="http://www.w3.org/2000/svg">
</g>
<g xmlns="http://www.w3.org/2000/svg">
</g>
<g xmlns="http://www.w3.org/2000/svg">
</g>
</g></svg>
