<?xml version="1.0"?>
<svg xmlns="http://www.w3.org/2000/svg" xmlns:xlink="http://www.w3.org/1999/xlink" xmlns:svgjs="http://svgjs.com/svgjs" version="1.1" width="512" height="512" x="0" y="0" viewBox="0 0 512 512" style="enable-background:new 0 0 512 512" xml:space="preserve" class=""><g><path xmlns="http://www.w3.org/2000/svg" d="m291.308594 97.101562c0-53.625-43.472656-97.101562-97.101563-97.101562-53.628906 0-97.105469 43.476562-97.105469 97.101562 0 53.628907 43.476563 97.105469 97.105469 97.105469 53.601563-.0625 97.042969-43.5 97.101563-97.105469zm-176.550782 0c0-43.875 35.570313-79.445312 79.449219-79.445312 43.878907 0 79.449219 35.570312 79.449219 79.445312 0 43.878907-35.570312 79.449219-79.449219 79.449219-43.859375-.046875-79.398437-35.589843-79.449219-79.449219zm0 0" fill="#fcaa22" data-original="#000000" style=""/><path xmlns="http://www.w3.org/2000/svg" d="m200.445312 103.34375.003907-.003906c2.523437-2.523438 3.28125-6.320313 1.914062-9.621094-1.367187-3.296875-4.585937-5.449219-8.15625-5.449219-3.570312 0-6.789062 2.152344-8.15625 5.449219-1.367187 3.300781-.609375 7.097656 1.914063 9.621094 3.488281 3.34375 8.988281 3.34375 12.480468.003906zm0 0" fill="#fcaa22" data-original="#000000" style=""/><path xmlns="http://www.w3.org/2000/svg" d="m169.84375 361.929688h139.121094c21.855468-.027344 43.40625-5.117188 62.964844-14.871094l7.417968-3.707032c22.007813-10.972656 46.265625-16.703124 70.859375-16.730468 4.683594.007812 9.175781-1.859375 12.472657-5.179688 3.65625-3.601562 5.53125-8.636718 5.121093-13.75-1.207031-9.558594-9.464843-16.640625-19.09375-16.382812h-210.363281v17.65625c0 4.875-3.949219 8.828125-8.828125 8.828125-4.875 0-8.824219-3.953125-8.824219-8.828125v-100.308594c-17.398437 4.273438-35.570312 4.273438-52.96875 0v100.308594c0 4.875-3.949218 8.828125-8.824218 8.828125-4.878907 0-8.828126-3.953125-8.828126-8.828125v-12.902344c-2.6875 1.515625-5.160156 3.382812-7.355468 5.550781-6.285156 6.347657-9.960938 14.824219-10.300782 23.753907-.246093 9.253906 3.308594 18.207031 9.835938 24.769531 7.230469 7.496093 17.179688 11.746093 27.59375 11.792969zm0 0" fill="#fcaa22" data-original="#000000" style=""/><path xmlns="http://www.w3.org/2000/svg" d="m256 97.101562c0-24.992187-15.054688-47.523437-38.144531-57.085937-23.09375-9.566406-49.671875-4.277344-67.34375 13.394531s-22.957031 44.25-13.394531 67.339844c9.566406 23.089844 32.097656 38.148438 57.089843 38.148438 34.113281-.039063 61.753907-27.683594 61.792969-61.796876zm-74.277344 24.96875c-3.460937 3.34375-8.96875 3.296876-12.375-.109374-3.402344-3.40625-3.453125-8.910157-.105468-12.375l1.132812-1.132813c-4.921875-10.085937-2.867188-22.183594 5.109375-30.078125 8.03125-7.636719 19.902344-9.621094 29.980469-5.011719l1.226562-1.226562c3.460938-3.34375 8.96875-3.296875 12.375.109375 3.402344 3.40625 3.453125 8.910156.105469 12.375l-1.132813 1.132812c4.917969 10.082032 2.867188 22.179688-5.105468 30.074219h-.003906v.003906c-7.894532 7.96875-19.988282 10.023438-30.074219 5.105469zm0 0" fill="#fcaa22" data-original="#000000" style=""/><path xmlns="http://www.w3.org/2000/svg" d="m406.070312 476.691406h35.308594c4.875 0 8.828125 3.949219 8.828125 8.824219v17.65625c0 4.875-3.953125 8.828125-8.828125 8.828125h-35.308594c-4.875 0-8.828124-3.953125-8.828124-8.828125v-17.65625c0-4.875 3.953124-8.824219 8.828124-8.824219zm0 0" fill="#fcaa22" data-original="#000000" style=""/><path xmlns="http://www.w3.org/2000/svg" d="m485.515625 379.585938h-476.6875c-4.875.007812-8.8203125 3.957031-8.828125 8.828124v61.792969c.0078125 4.871094 3.953125 8.820313 8.828125 8.828125h476.6875c4.875-.007812 8.824219-3.957031 8.828125-8.828125v-61.792969c-.003906-4.871093-3.953125-8.820312-8.828125-8.828124zm0 0" fill="#fcaa22" data-original="#000000" style=""/><path xmlns="http://www.w3.org/2000/svg" d="m114.757812 304.550781c0 31.691407-25.6875 57.378907-57.378906 57.378907-31.6875 0-57.378906-25.6875-57.378906-57.378907 0-31.6875 25.691406-57.378906 57.378906-57.378906 31.691406 0 57.378906 25.691406 57.378906 57.378906zm0 0" fill="#fcaa22" data-original="#000000" style=""/><path xmlns="http://www.w3.org/2000/svg" d="m52.964844 476.691406h35.3125c4.875 0 8.824218 3.949219 8.824218 8.824219v17.65625c0 4.875-3.949218 8.828125-8.824218 8.828125h-35.3125c-4.875 0-8.828125-3.953125-8.828125-8.828125v-17.65625c0-4.875 3.953125-8.824219 8.828125-8.824219zm0 0" fill="#fcaa22" data-original="#000000" style=""/></g></svg>
