<?xml version="1.0"?>
<svg xmlns="http://www.w3.org/2000/svg" xmlns:xlink="http://www.w3.org/1999/xlink" xmlns:svgjs="http://svgjs.com/svgjs" version="1.1" width="512" height="512" x="0" y="0" viewBox="0 0 512 512" style="enable-background:new 0 0 512 512" xml:space="preserve" class=""><g><path xmlns="http://www.w3.org/2000/svg" d="m247.94222 111.92284h-60.11775a48 48 0 0 0 -33.94113 14.05887l-40.6661 40.6661a16 16 0 0 0 -1.99909 20.18892l8.72407 13.08611 16-8 6.34315 6.34314a5.65681 5.65681 0 0 0 4 1.65686 5.65685 5.65685 0 0 0 5.65685-5.65685v-18.34315l32-32 64-.5162z" fill="#ffbfa1" data-original="#ffbfa1" style="" class=""/><path xmlns="http://www.w3.org/2000/svg" d="m335.94222 391.92284-32 16-16-88-42.3501-37.65-29.6499-26.35-18.90991 30.25-7.8501 12.57a45.07664 45.07664 0 0 1 -65.26 12.17l-51.98-38.99 8-32 72 40 5.07007-17.76 6.7-23.44a59.32329 59.32329 0 0 1 15.10986-25.68 59.38915 59.38915 0 0 0 16.44019-31.37l6.96-38.27a38.333 38.333 0 0 1 37.72-31.48h16l21.29 21.29a24.50793 24.50793 0 0 1 -6.37012 39.25l-6.91992 3.46-16 40 32 32 39.71 39.71a32.01545 32.01545 0 0 1 9.25977 19.97z" fill="#ffceb6" data-original="#ffceb6" style=""/><path xmlns="http://www.w3.org/2000/svg" d="m247.94222 63.92284-6.51029-9.76543a31.96623 31.96623 0 0 0 -26.59753-14.23457 44.67642 44.67642 0 0 0 -26.80586 8.93528 44.67645 44.67645 0 0 1 -43.39834 5.73988l-16.688-6.67519 10.59086 17.65142a46.03166 46.03166 0 0 0 39.47183 22.34858 46.03166 46.03166 0 0 0 25.53378-7.731 30.4797 30.4797 0 0 1 26.5456-3.55494l9.85787 3.28594h8z" fill="#b66514" data-original="#b66514" style=""/><path xmlns="http://www.w3.org/2000/svg" d="m415.942 471.923h-392l24-40h368z" fill="#62798c" data-original="#62798c" style=""/><path xmlns="http://www.w3.org/2000/svg" d="m487.942 471.923h-120l40-56h80z" fill="#8098ab" data-original="#8098ab" style="" class=""/><path xmlns="http://www.w3.org/2000/svg" d="m447.942 223.923h40v192h-40z" fill="#62798c" data-original="#62798c" style=""/><path xmlns="http://www.w3.org/2000/svg" d="m311.942 223.923 16-32h160v32z" fill="#8098ab" data-original="#8098ab" style="" class=""/><path xmlns="http://www.w3.org/2000/svg" d="m284.412 150.54283a24.51834 24.51834 0 0 1 -13.54981 21.92l-6.91992 3.46-16 40-55.58008-23.82a59.903 59.903 0 0 0 2.90015-10.43l6.96-38.27a38.333 38.333 0 0 1 37.72-31.48h16l21.29 21.29a24.5012 24.5012 0 0 1 7.17966 17.33z" fill="#ffc431" data-original="#ffc431" style="" class=""/><path xmlns="http://www.w3.org/2000/svg" d="m246.43123 120.03411 25.511 31.88873 40-26.66667 6.24187-16.645a7.22533 7.22533 0 0 1 6.76529-4.68835 7.22533 7.22533 0 0 1 5.10908 2.11625l5.88375 5.88375 8-8 4.68629 4.68629a16 16 0 0 1 0 22.62741l-49.37259 49.3726a38.62739 38.62739 0 0 1 -27.31369 11.3137 38.62739 38.62739 0 0 1 -27.31368-11.3137l-29.34126-29.34122a25.07761 25.07761 0 0 1 -7.34507-17.73256 21.61247 21.61247 0 0 1 21.61247-21.61247 21.61246 21.61246 0 0 1 16.87654 8.11124z" fill="#ffceb6" data-original="#ffceb6" style=""/><path xmlns="http://www.w3.org/2000/svg" d="m303.942 407.923v24h64v-16l-32-24z" fill="#ffffff" data-original="#d1e4ff" style="" class=""/><path xmlns="http://www.w3.org/2000/svg" d="m71.942 271.923-40 8-8-8 40-48 16 16z" fill="#ffffff" data-original="#d1e4ff" style="" class=""/><path xmlns="http://www.w3.org/2000/svg" d="m279.94222 247.92284-34.3501 34.35-29.6499-26.35-18.90991 30.25-40.02-24.01 6.7-23.44a59.32329 59.32329 0 0 1 15.10986-25.68 59.47858 59.47858 0 0 0 13.54-20.94l55.58008 23.82z" fill="#fbb506" data-original="#548aff" style="" class=""/><path xmlns="http://www.w3.org/2000/svg" d="m287.94222 95.92284v-16a24 24 0 0 0 -24-24h-.00005a24 24 0 0 0 -24 24v16z" fill="#c47220" data-original="#c47220" style=""/><path xmlns="http://www.w3.org/2000/svg" d="m239.94222 95.92284h6.11147a28.94424 28.94424 0 0 0 25.88852-16l16 16v8a24 24 0 0 1 -24 24h-.00005a24 24 0 0 1 -24-24z" fill="#ffceb6" data-original="#ffceb6" style=""/><path xmlns="http://www.w3.org/2000/svg" d="m447.942 191.923 16-40h24v40z" fill="#62798c" data-original="#62798c" style=""/></g></svg>
